<?xml  version="1.0" encoding="UTF-8"?>
<!DOCTYPE svg PUBLIC "-//W3C//DTD SVG 1.0//EN" "http://www.w3.org/TR/2001/REC-SVG-20010904/DTD/svg10.dtd" >
<svg xmlns="http://www.w3.org/2000/svg" >
<metadata>
<version>1.0</version>
<id><![CDATA[Trade Gothic W02 Bold Cn 20 Obl]]></id>
<vendor>Monotype Imaging Inc.</vendor>
<credits>
<name>Fonts.com WebFonts</name>
<URL>http://webfonts.fonts.com</URL>
<role>Home of the Web fonts</role>
</credits>
<license>
<URL>http://webfonts.fonts.com/Legal</URL>
</license>
<copyright><![CDATA[Part of the digitally encoded machine readable outline data for producing the Typefaces provided is copyrighted © 2002 - 2007 Linotype GmbH, www.linotype.com. All rights reserved. This software is the property of Linotype GmbH, and may not be reproduced, used, displayed, modified, disclosed or transferred without the express written approval of Linotype GmbH.  The digitally encoded machine readable software for producing the Typefaces licensed to you is copyrighted (c) 1989 Adobe Systems. All rights reserved. This software is the property of Adobe Systems Incorporated and its licensors, and may not be reproduced, used, displayed, modified, disclosed, or transferred without the express written approval of Adobe. Trade Gothic is a trademark of Linotype GmbH and may be registered in certain jurisdictions. This typeface is original artwork of Jackson Burke. The design may be protected in certain jurisdictions.]]></copyright>
<trademark><![CDATA[Trade Gothic is a trademark of Linotype GmbH and may be registered in certain jurisdictions.]]></trademark>
<licensee>
<name></name>
</licensee>
</metadata>
<defs >
<font horiz-adv-x="428" id="f04cc819-a804-4457-ae2d-b8e4a45747b0">
<font-face font-family="" panose-1="2 11 8 6 4 3 3 9 0 4" ascent="964" descent="-236" units-per-em="1000" alphabetic="0">
</font-face>
<missing-glyph horiz-adv-x="0" />

<glyph unicode="&#xA;" />
<glyph unicode="&#xD;" horiz-adv-x="0" />
<glyph unicode=" " horiz-adv-x="222" />
<glyph unicode="!" horiz-adv-x="278" d="M80 0L105 118H223L198 0H80ZM232 722H358L225 212H143L232 722Z"  />
<glyph unicode="&quot;" horiz-adv-x="333" d="M355 722H449L389 448H295L355 722ZM196 722H290L230 448H136L196 722Z"  />
<glyph unicode="#" horiz-adv-x="444" d="M285 430L239 292H319L365 430H285ZM454 214H382L312 0H222L293 214H212L142 0H51L122 214H56L73 292H149L194 430H128L144 508H220L292 722H381L309 508H390L462 722H551L479 508H543L527 430H455L409 292H471L454 214Z"  />
<glyph unicode="$" horiz-adv-x="444" d="M327 624Q301 616 284 596T261 550Q258 535 258 522Q258 500 266 484T289 450L327 624ZM272 96Q306 108 323 131T348 189Q351 204 351 216Q351 240 341 257T315 293L272 96ZM367 810H427L408 722Q448 714 479 690T527 631L437 566Q429 585 419 602T387 624L342 417Q365 400 386 382T424 342T450 297T460 241Q460 230 459 219T455 194Q447 156 430 123T386 63T326 20T252 0L226 -116H166L192 0Q141 5 107 38T54 113L151 176Q155 150 170 127T212 96L263 331Q241 346 221 363T186 401T161 446T152 499Q152 508 153 517T156 537Q163 572 180 603T221 659T278 700T348 722L367 810Z"  />
<glyph unicode="%" horiz-adv-x="778" d="M250 558Q249 553 249 550T248 541Q248 512 267 493T316 474Q351 474 380 498T418 558Q419 563 419 566T420 575Q420 604 401 623T352 642Q317 642 288 618T250 558ZM515 164Q514 159 514 156T513 147Q513 118 532 99T581 80Q616 80 645 104T683 164Q684 169 684 172T685 181Q685 210 666 229T617 248Q582 248 553 224T515 164ZM790 732L220 -10H145L715 732H790ZM435 164Q442 198 461 228T508 280T567 315T634 328Q694 328 730 292T767 199Q767 180 763 164Q755 130 736 100T690 48T631 13T564 0Q504 0 468 36T431 129Q431 148 435 164ZM170 558Q177 592 196 622T243 674T303 709T370 722Q430 722 466 686T502 594Q502 586 501 577T498 558Q491 524 472 494T425 442T366 407T299 394Q239 394 203 431T166 524Q166 532 167 540T170 558Z"  />
<glyph unicode="&amp;" horiz-adv-x="556" d="M203 175Q202 170 202 166T201 157Q201 131 216 115T260 98Q278 98 291 102T321 119Q300 153 283 188T254 264Q233 240 222 222T203 175ZM319 589Q316 576 315 563T314 536Q314 513 316 492T323 450Q351 479 377 511T411 582Q414 593 415 602T416 620Q416 660 383 660Q360 660 344 642T319 589ZM575 323Q554 273 525 227T467 134Q478 121 494 112T528 100L504 -10Q465 -9 432 5T376 45Q340 16 305 3T222 -10Q155 -10 118 24T81 116Q81 134 86 159Q92 187 105 215T138 269T179 319T225 363Q218 395 212 432T206 506Q206 520 207 534T211 562Q219 599 235 630T277 683T334 719T405 732Q462 732 493 703T524 623Q524 613 523 603T519 582Q512 548 494 519T452 462T401 411T348 363Q359 324 373 287T406 216Q426 249 445 282T479 350L575 323Z"  />
<glyph unicode="&apos;" horiz-adv-x="222" d="M220 722H314L254 448H160L220 722Z"  />
<glyph unicode="(" horiz-adv-x="278" d="M404 732Q329 644 276 540T197 323Q179 239 179 159Q179 92 191 31T227 -86H131Q108 -32 96 31T84 163Q84 240 101 323Q125 434 179 540T308 732H404Z"  />
<glyph unicode=")" horiz-adv-x="278" d="M286 732Q309 678 321 616T333 485Q333 405 315 323Q292 212 238 106T109 -86H13Q88 2 141 106T219 323Q228 365 233 406T238 488Q238 554 226 616T190 732H286Z"  />
<glyph unicode="*" horiz-adv-x="444" d="M522 556Q483 554 444 549T367 539Q387 510 408 483T455 432L364 377Q359 413 350 447T333 517Q310 482 286 448T242 377L175 432Q210 456 243 483T309 539Q272 544 236 549T162 556L211 645Q265 607 324 578Q328 609 329 639T331 699V722H425Q409 687 395 651T370 578Q406 593 441 609T511 645L522 556Z"  />
<glyph unicode="+" horiz-adv-x="600" d="M360 506H458L414 302H618L597 204H393L349 0H251L295 204H91L112 302H316L360 506Z"  />
<glyph unicode="&#x2c;" horiz-adv-x="222" d="M170 0L74 -124H21L97 0H52L77 118H195L170 0Z"  />
<glyph unicode="-" horiz-adv-x="333" d="M92 223L112 315H357L337 223H92Z"  />
<glyph unicode="." horiz-adv-x="222" d="M52 0L77 118H195L170 0H52Z"  />
<glyph unicode="/" horiz-adv-x="278" d="M359 732H457L74 -10H-23L359 732Z"  />
<glyph unicode="0" horiz-adv-x="444" d="M402 565Q405 578 405 590Q405 634 359 634Q301 634 286 565L197 157Q194 143 194 133Q194 88 241 88Q298 88 313 157L402 565ZM161 534Q183 636 235 684T380 732Q454 732 488 703T523 611Q523 594 521 575T513 534L438 188Q416 85 365 38T219 -10Q145 -10 111 19T77 112Q77 144 86 188L161 534Z"  />
<glyph unicode="1" horiz-adv-x="444" d="M300 572H202L217 639Q263 660 305 683T384 732H447L289 0H177L300 572Z"  />
<glyph unicode="2" horiz-adv-x="444" d="M44 0L64 97Q140 181 199 248T300 369T367 467T401 552Q405 569 405 585Q405 610 394 622T363 634Q333 634 314 613T286 559L276 510H158L165 544Q174 584 193 618T242 677T309 717T390 732Q423 732 448 722T491 695T518 655T527 606Q527 598 526 589T523 572Q514 529 497 489T443 396T347 274T192 102H411L389 0H44Z"  />
<glyph unicode="3" horiz-adv-x="444" d="M203 209L192 160Q189 145 189 134Q189 88 233 88Q260 88 280 108T310 173L322 228Q327 253 327 268Q327 303 306 316T238 330L259 428Q286 428 306 433T342 450T367 484T384 538Q391 569 391 592Q391 634 355 634Q329 634 311 619T283 560L276 530H164L172 564Q180 601 198 631T242 684T302 719T377 732Q410 732 433 722T473 693T496 651T504 598Q504 574 498 547Q491 515 483 491T461 446T430 410T384 381Q417 361 431 339T445 282Q445 265 442 246T434 202Q411 93 356 42T208 -10Q144 -10 109 17T74 107Q74 135 81 166L91 209H203Z"  />
<glyph unicode="4" horiz-adv-x="444" d="M291 266L352 548H350L168 266H291ZM269 174H53L73 266L382 722H502L403 266H469L449 174H383L346 0H232L269 174Z"  />
<glyph unicode="5" horiz-adv-x="444" d="M207 209L194 151Q193 146 193 142T192 133Q192 112 203 100T236 88Q265 88 285 107T316 176L351 340Q354 352 354 363Q354 386 342 396T313 406Q284 406 266 390T234 351H138Q149 393 159 432T180 514T202 607T228 722H333H529L503 620H308L267 464L268 462Q298 490 321 497T373 504Q426 504 450 477T474 397Q474 363 463 314L442 214Q417 100 366 45T225 -10Q193 -10 166 -4T119 16T88 52T77 106Q77 128 83 154L95 209H207Z"  />
<glyph unicode="6" horiz-adv-x="444" d="M197 157Q194 143 194 133Q194 88 241 88Q298 88 313 157L339 277Q342 292 342 303Q342 346 302 346Q285 346 265 334T231 313L197 157ZM389 528L397 565Q399 573 400 580T401 594Q401 634 359 634Q301 634 286 565L249 396Q264 408 276 417T301 432T328 441T362 444Q407 444 437 421T468 343Q468 323 462 296L443 210Q418 96 365 43T219 -10Q145 -10 111 19T77 112Q77 144 86 188L161 534Q183 636 235 684T380 732H384Q445 732 477 699T510 612Q510 591 506 572L497 528H389Z"  />
<glyph unicode="7" horiz-adv-x="444" d="M190 620L212 722H538L523 652L235 0H118L397 620H190Z"  />
<glyph unicode="8" horiz-adv-x="444" d="M316 436Q345 436 362 459T391 535Q395 551 396 564T398 588Q398 634 359 634Q330 634 312 611T283 535Q280 519 278 507T276 483Q276 436 316 436ZM241 88Q277 88 297 119T331 208Q339 245 339 269Q339 328 292 328Q256 328 236 297T203 208Q195 170 195 146Q195 118 205 103T241 88ZM89 200Q96 233 105 260T127 311T159 352T204 385Q184 402 175 428T165 484Q165 504 170 529Q193 635 248 683T380 732Q442 732 476 701T511 602Q511 569 502 529Q493 487 469 448T406 385Q431 366 441 341T452 284Q452 265 449 245T441 200Q418 97 363 44T219 -10Q150 -10 115 24T80 125Q80 158 89 200Z"  />
<glyph unicode="9" horiz-adv-x="444" d="M402 565Q405 578 405 590Q405 634 359 634Q301 634 286 565L260 445Q257 431 257 420Q257 376 297 376Q314 376 334 388T368 409L402 565ZM210 194L202 157Q199 140 199 129Q199 88 241 88Q298 88 313 157L350 326Q321 302 298 290T238 278Q193 278 163 301T132 379Q132 399 138 426L156 512Q181 626 234 679T380 732Q454 732 488 703T523 611Q523 594 521 575T513 534L438 188Q416 85 365 38T219 -10H215Q154 -10 122 23T89 110Q89 131 93 150L102 194H210Z"  />
<glyph unicode=":" horiz-adv-x="222" d="M112 278L137 396H255L230 278H112ZM52 0L77 118H195L170 0H52Z"  />
<glyph unicode=";" horiz-adv-x="222" d="M112 278L137 396H255L230 278H112ZM170 0L74 -124H21L97 0H52L77 118H195L170 0Z"  />
<glyph unicode="&lt;" horiz-adv-x="600" d="M553 0L92 211L110 295L662 506L640 402L242 253L575 104L553 0Z"  />
<glyph unicode="=" horiz-adv-x="600" d="M574 100H68L89 198H595L574 100ZM619 308H113L134 406H640L619 308Z"  />
<glyph unicode="&gt;" horiz-adv-x="600" d="M69 104L466 253L134 402L156 506L616 295L598 211L47 0L69 104Z"  />
<glyph unicode="?" horiz-adv-x="389" d="M124 0L149 118H267L242 0H124ZM182 212L201 296Q212 348 237 390T290 469Q317 505 340 536T369 595Q370 599 370 606Q370 620 362 630T337 640Q321 640 308 633T284 615T265 591T250 564L161 600Q199 666 249 699T371 732Q421 732 455 703T489 625Q489 611 486 598Q480 570 470 549T448 509T420 475T390 443Q375 427 360 410T332 372T308 325T290 266L278 212H182Z"  />
<glyph unicode="@" horiz-adv-x="800" d="M419 233Q446 233 472 247T519 283T554 331T575 384Q577 389 577 394Q577 400 577 405Q577 434 561 452T516 471Q489 471 463 457T416 421T380 373T360 322Q357 310 357 298Q357 269 373 251T419 233ZM657 548H738L619 291Q615 282 611 272T604 252Q603 248 603 245T602 239Q602 225 614 225Q635 225 659 238T704 276T743 334T770 408Q777 437 777 468Q777 513 761 548T715 606T645 642T556 654Q492 654 435 632T331 570T253 476T207 359Q199 321 199 290Q199 240 216 199T264 129T340 84T441 68Q504 68 564 89T672 151H755Q687 73 600 32T418 -10Q349 -10 292 10T194 67T131 156T108 274Q108 317 118 361Q135 442 179 510T285 627T421 704T574 732Q633 732 685 715T775 667T836 590T859 490Q859 458 852 429Q835 352 795 298T708 210T616 159T543 143Q523 143 510 153T497 185Q497 193 498 197L496 198Q471 175 439 159T376 143Q349 143 326 153T287 180T262 221T253 273Q253 293 257 309Q267 356 292 401T354 482T434 539T527 561Q603 561 630 496L657 548Z"  />
<glyph unicode="A" horiz-adv-x="444" d="M230 268H330L348 578H346L230 268ZM132 0H12L301 722H455L432 0H312L324 160H188L132 0Z"  />
<glyph unicode="B" horiz-adv-x="500" d="M276 426H321Q356 426 385 449T424 518Q429 541 429 557Q429 620 365 620H318L276 426ZM206 102H258Q308 102 334 130T372 213Q374 225 375 235T377 255Q377 290 358 307T294 324H254L206 102ZM216 722H340H400Q481 722 519 690T558 594Q558 568 550 531Q545 508 535 485T511 441T476 405T432 380Q465 363 483 337T502 266Q502 238 495 209Q485 164 467 126T419 60T349 16T256 0H184H60L216 722Z"  />
<glyph unicode="C" horiz-adv-x="500" d="M414 481L426 537Q430 553 430 569Q430 598 418 611T385 624Q347 624 329 605T301 544L222 178Q218 161 218 144Q218 121 230 110T271 98Q305 98 322 117T347 171L365 258H489L471 175Q463 137 445 103T398 44T331 5T247 -10Q166 -10 129 28T91 126Q91 149 97 175L178 547Q186 585 205 619T252 678T320 717T408 732Q446 732 474 721T520 691T546 646T555 589Q555 562 549 534L538 481H414Z"  />
<glyph unicode="D" horiz-adv-x="500" d="M206 102H249Q298 102 322 124T359 203L428 519Q434 544 434 564Q434 596 417 608T361 620H318L206 102ZM216 722H340H400Q558 722 558 580Q558 546 549 504L487 218Q463 106 402 53T244 0H184H60L216 722Z"  />
<glyph unicode="E" horiz-adv-x="444" d="M184 0H60L216 722H340H548L524 614H316L276 428H436L413 320H253L207 108H429L406 0H184Z"  />
<glyph unicode="F" horiz-adv-x="444" d="M60 0L216 722H340H562L538 614H316L276 428H442L419 320H253L184 0H60Z"  />
<glyph unicode="G" horiz-adv-x="500" d="M310 366H387H513L434 0H374L362 54Q327 21 297 6T223 -10Q161 -10 126 24T91 122Q91 146 97 175L178 547Q186 585 204 619T251 678T317 717T400 732Q439 732 467 721T513 691T540 645T549 588Q549 562 543 534L533 488H415Q420 513 423 532T426 566Q426 599 413 611T374 624Q351 624 332 608T301 545L221 174Q219 166 218 159T217 144Q217 123 227 111T263 98Q301 98 321 121T352 198L368 268H289L310 366Z"  />
<glyph unicode="H" horiz-adv-x="500" d="M60 0L216 722H340L276 428H408L472 722H596L440 0H316L385 320H253L184 0H60Z"  />
<glyph unicode="I" horiz-adv-x="278" d="M77 0L233 722H357L201 0H77Z"  />
<glyph unicode="J" horiz-adv-x="278" d="M24 98H50Q86 98 103 113T128 158L250 722H374L249 144Q241 109 227 81T189 33T129 1T41 -10H0L24 98Z"  />
<glyph unicode="K" horiz-adv-x="444" d="M54 0L210 722H334L276 455H278L466 722H590L398 453L451 0H325L296 336H294L233 256L178 0H54Z"  />
<glyph unicode="L" horiz-adv-x="389" d="M177 0H54L210 722H334L201 108H396L373 0H177Z"  />
<glyph unicode="M" horiz-adv-x="611" d="M713 722L557 0H449L571 564H569L335 0H275L285 564H283L161 0H53L209 722H318H372L368 300H370L550 722H606H713Z"  />
<glyph unicode="N" horiz-adv-x="500" d="M60 0L216 722H331L392 309H394L484 722H596L440 0H332L271 451H269L172 0H60Z"  />
<glyph unicode="O" horiz-adv-x="500" d="M222 178Q218 161 218 144Q218 121 230 110T271 98Q309 98 327 117T354 178L433 544Q438 566 438 579Q438 602 426 613T385 624Q347 624 329 605T301 544L222 178ZM178 547Q186 585 205 619T252 678T320 717T408 732Q489 732 526 694T564 596Q564 572 558 547L477 175Q469 137 450 103T403 44T335 5T247 -10Q166 -10 129 28T91 126Q91 149 97 175L178 547Z"  />
<glyph unicode="P" horiz-adv-x="500" d="M270 398H318Q348 398 369 403T406 421T431 455T448 509Q454 537 454 558Q454 593 434 606T366 620H318L270 398ZM60 0L216 722H337H394Q488 722 534 690T581 583Q581 551 572 509Q559 451 537 411T482 345T404 308T302 296H248L184 0H60Z"  />
<glyph unicode="Q" horiz-adv-x="500" d="M314 258Q323 253 335 244T362 214L433 544Q438 566 438 579Q438 602 426 613T385 624Q347 624 329 605T301 544L222 178Q218 161 218 144Q218 121 230 110T271 98Q299 98 315 109Q309 129 303 136T291 148L314 258ZM465 -54Q448 -54 433 -52T404 -43T378 -23T353 13Q307 -10 247 -10Q166 -10 129 28T91 126Q91 149 97 175L178 547Q186 585 205 619T252 678T320 717T408 732Q489 732 526 694T564 596Q564 572 558 547L477 175Q466 123 436 82Q453 64 465 60T488 54L465 -54Z"  />
<glyph unicode="R" horiz-adv-x="500" d="M270 398H314Q339 398 357 403T390 421T413 455T430 509Q436 539 436 560Q436 594 418 607T362 620H318L270 398ZM184 0H60L216 722H337H390Q476 722 519 690T563 584Q563 551 554 509Q545 465 531 434T499 382T463 347T427 327L462 0H336L312 299Q300 297 283 297T248 296L184 0Z"  />
<glyph unicode="S" horiz-adv-x="444" d="M403 544Q404 550 404 555T405 565Q405 599 389 611T355 624Q325 624 305 606T277 553Q276 548 276 544T275 534Q275 509 288 487T321 442T363 396T406 347T439 290T452 221Q452 210 451 199T447 175Q438 130 416 96T363 38T293 2T211 -10Q174 -10 147 2T101 34T74 83T65 144Q65 155 66 166T69 190L190 207Q188 198 188 190Q188 182 188 174Q188 136 202 117T241 98Q273 98 296 115T327 164Q330 177 330 189Q330 217 317 240T284 286T242 330T199 378T166 434T153 503Q153 525 159 552Q178 639 238 685T390 732Q459 732 492 692T526 587Q526 579 526 572T524 557L403 544Z"  />
<glyph unicode="T" horiz-adv-x="389" d="M264 614H144L168 722H287H410H532L508 614H388L256 0H132L264 614Z"  />
<glyph unicode="U" horiz-adv-x="500" d="M216 722H340L222 177Q218 162 218 147Q218 98 271 98Q336 98 354 177L472 722H596L479 182Q459 88 398 39T247 -10Q172 -10 132 24T92 125Q92 138 94 152T99 182L216 722Z"  />
<glyph unicode="V" horiz-adv-x="444" d="M469 722H591L284 0H160L165 722H287L268 221H270L469 722Z"  />
<glyph unicode="W" horiz-adv-x="667" d="M431 722H533L517 262H519L688 722H804L521 0H417L430 477H428L241 0H137L156 722H272L248 262H250L431 722Z"  />
<glyph unicode="X" horiz-adv-x="444" d="M237 378L180 722H302L328 493H330L449 722H571L371 378L430 0H308L280 263H278L136 0H14L237 378Z"  />
<glyph unicode="Y" horiz-adv-x="444" d="M284 0H160L224 300L166 722H292L319 447H321L464 722H590L348 300L284 0Z"  />
<glyph unicode="Z" horiz-adv-x="444" d="M204 614L228 722H556L530 604L195 108H423L400 0H44L69 118L407 614H204Z"  />
<glyph unicode="[" horiz-adv-x="278" d="M395 674H277L125 -28H243L233 -76H114H19L192 722H286H406L395 674Z"  />
<glyph unicode="\" horiz-adv-x="278" d="M296 -10H198L137 732H235L296 -10Z"  />
<glyph unicode="]" horiz-adv-x="278" d="M184 722H302H398L225 -76H128H11L21 -28H139L291 674H173L184 722Z"  />
<glyph unicode="^" horiz-adv-x="600" d="M121 302L402 722H510L609 302H500L429 604L228 302H121Z"  />
<glyph unicode="_" horiz-adv-x="500" d="M-27 -125L-16 -75H483L472 -125H-27Z"  />
<glyph unicode="`" horiz-adv-x="222" d="M129 746H264L312 602H229L129 746Z"  />
<glyph unicode="a" horiz-adv-x="444" d="M332 273Q289 251 261 233T214 198T187 165T174 131Q173 126 173 122T172 114Q172 82 215 82Q238 82 260 97T301 132L332 273ZM124 380Q146 462 203 505T340 548Q406 548 441 522T477 443Q477 433 476 423T472 402L397 57Q394 44 393 29T392 0H285Q287 11 287 21T288 42Q250 16 218 3T145 -10Q98 -10 76 14T54 76Q54 95 58 111Q67 155 89 190T148 254T234 307T349 355L356 387Q359 402 359 413Q359 456 316 456Q278 456 262 436T236 380H124Z"  />
<glyph unicode="b" horiz-adv-x="444" d="M189 110Q203 98 216 90T247 82Q258 82 269 85T289 99T306 125T320 169L363 369Q369 394 369 411Q369 438 357 447T328 456Q311 456 295 448T258 428L189 110ZM54 0L210 722H322L272 492Q291 505 307 515T337 533T367 544T400 548Q442 548 465 524T488 451Q488 428 482 398L426 140Q410 66 371 28T279 -10Q237 -10 215 5T174 56H172L160 0H54Z"  />
<glyph unicode="c" horiz-adv-x="444" d="M360 354L363 368Q368 391 368 406Q368 456 320 456Q290 456 270 436T239 368L196 170Q192 151 192 133Q192 106 204 94T239 82Q269 82 289 102T320 170L328 204H440L437 190Q427 146 410 109T367 46T304 5T219 -10Q144 -10 112 24T80 118Q80 151 89 190L123 348Q132 392 149 429T193 492T255 533T340 548Q415 548 447 514T479 419Q479 404 478 388T472 354H360Z"  />
<glyph unicode="d" horiz-adv-x="444" d="M370 428Q356 440 343 448T312 456Q289 456 270 439T239 369L196 169Q193 156 192 146T191 128Q191 101 202 92T231 82Q248 82 265 90T301 110L370 428ZM284 0L296 56H294Q258 21 230 6T159 -10Q117 -10 95 14T72 86Q72 110 78 140L134 398Q150 472 188 510T280 548Q298 548 311 545T336 534T359 516T384 492L434 722H546L390 0H284Z"  />
<glyph unicode="e" horiz-adv-x="444" d="M357 340L363 368Q368 391 368 406Q368 456 320 456Q290 456 270 436T239 368L233 340H357ZM449 248H213L196 170Q192 151 192 133Q192 106 204 94T239 82Q269 82 289 102T320 170L323 182H435Q425 139 408 104T364 44T302 4T219 -10Q144 -10 112 24T80 118Q80 151 89 190L123 348Q132 392 149 429T193 492T255 533T340 548Q415 548 447 514T479 419Q479 388 471 348L449 248Z"  />
<glyph unicode="f" horiz-adv-x="278" d="M172 446H106L126 538H192L206 605Q220 671 259 701T359 732H415L395 640H363Q343 640 333 632T318 604L304 538H368L348 446H284L188 0H76L172 446Z"  />
<glyph unicode="g" horiz-adv-x="444" d="M211 -90Q239 -90 258 -88T289 -81T307 -69T315 -50Q316 -47 316 -41Q316 -24 297 -17T228 -10Q172 -10 151 -19T125 -50Q124 -53 124 -59Q124 -75 142 -82T211 -90ZM247 230Q263 230 275 235T296 252T313 287T328 343Q333 366 335 383T338 414Q338 439 328 447T296 456Q282 456 271 451T250 434T232 399T216 343Q207 301 207 278Q207 250 217 240T247 230ZM524 455Q519 456 515 456Q511 456 506 456Q491 456 477 453T449 439V428Q449 408 447 388T442 354Q429 292 410 251T363 185T302 149T225 138H189Q180 136 172 130T162 113Q162 111 162 111T161 108Q161 93 180 89T228 83T290 81T353 71T401 45T420 -9Q420 -26 416 -42Q401 -111 335 -140T159 -170Q82 -170 40 -152T-2 -98Q-2 -94 0 -84Q6 -52 33 -30T91 0V2Q74 10 64 22T53 53Q53 57 53 61T55 70Q58 84 67 97T88 121T115 141T141 157Q118 176 107 194T96 246Q96 281 111 350Q123 405 140 443T184 504T245 538T328 548Q364 548 392 535T440 490Q455 506 466 517T489 535T513 545T544 548L524 455Z"  />
<glyph unicode="h" horiz-adv-x="444" d="M54 0L210 722H322L271 488Q289 501 304 512T336 531T371 543T414 548Q450 548 469 528T488 471Q488 452 484 435L390 0H278L368 417Q369 420 369 423Q369 427 369 429Q369 443 360 449T336 456Q318 456 299 446T257 422L166 0H54Z"  />
<glyph unicode="i" horiz-adv-x="222" d="M189 620L211 722H323L301 620H189ZM55 0L171 538H283L167 0H55Z"  />
<glyph unicode="j" horiz-adv-x="222" d="M195 620L217 722H329L307 620H195ZM-14 -68H4Q27 -68 39 -56T55 -26L177 537H289L166 -31Q157 -71 141 -98T104 -141T57 -163T6 -170H-36L-14 -68Z"  />
<glyph unicode="k" horiz-adv-x="444" d="M373 368L424 0H311L278 267H276L206 188L166 0H54L210 722H322L241 348H243L407 538H527L373 368Z"  />
<glyph unicode="l" horiz-adv-x="222" d="M55 0L211 722H323L167 0H55Z"  />
<glyph unicode="m" horiz-adv-x="667" d="M277 0L367 417Q368 421 368 428Q368 442 359 449T336 456Q318 456 299 446T257 422L166 0H54L170 538H276L264 484Q285 499 301 511T334 531T366 543T402 548Q423 548 437 544T460 533T475 513T486 484Q511 503 530 515T565 535T595 545T625 548Q668 548 689 528T710 470Q710 452 706 435L612 0H500L590 417Q591 421 591 428Q591 442 582 449T558 456Q540 456 521 446T480 422L389 0H277Z"  />
<glyph unicode="n" horiz-adv-x="444" d="M54 0L170 538H276L264 484Q285 499 302 511T335 531T371 543T414 548Q450 548 469 528T488 471Q488 452 484 435L390 0H278L368 417Q369 420 369 423Q369 427 369 429Q369 443 360 449T336 456Q318 456 299 446T257 422L166 0H54Z"  />
<glyph unicode="o" horiz-adv-x="444" d="M363 368Q368 391 368 406Q368 456 320 456Q290 456 270 436T239 368L196 170Q192 151 192 133Q192 106 204 94T239 82Q269 82 289 102T320 170L363 368ZM123 348Q132 392 149 429T193 492T255 533T340 548Q415 548 447 514T479 419Q479 388 471 348L437 190Q427 146 410 109T367 46T304 5T219 -10Q144 -10 112 24T80 118Q80 151 89 190L123 348Z"  />
<glyph unicode="p" horiz-adv-x="444" d="M189 110Q203 98 216 90T247 82Q258 82 269 85T289 99T306 125T320 169L363 369Q369 394 369 411Q369 438 357 447T328 456Q311 456 295 448T258 428L189 110ZM276 538L264 482H266Q301 517 329 532T400 548Q442 548 465 524T488 451Q488 428 482 398L426 140Q410 66 371 28T279 -10Q261 -10 248 -7T223 4T200 22T175 46L129 -170H17L170 538H276Z"  />
<glyph unicode="q" horiz-adv-x="444" d="M370 428Q356 440 343 448T312 456Q289 456 270 439T239 369L196 169Q193 156 192 146T191 128Q191 101 202 92T231 82Q248 82 265 90T301 110L370 428ZM506 538L353 -170H241L287 46Q268 32 253 22T223 5T193 -6T159 -10Q117 -10 95 14T72 86Q72 110 78 140L134 398Q150 472 188 510T280 548Q322 548 344 533T386 482H388L400 538H506Z"  />
<glyph unicode="r" horiz-adv-x="333" d="M54 0L170 538H277L263 475H265Q293 510 330 529T408 548H431L406 431Q392 435 377 438T336 442Q307 442 281 424T246 370L166 0H54Z"  />
<glyph unicode="s" horiz-adv-x="389" d="M342 389V393Q342 456 292 456Q270 456 255 445T234 413Q233 409 233 402Q233 376 257 354T310 307T364 249T388 170Q388 151 384 135Q368 63 316 27T195 -10Q124 -10 91 26T57 128V140L161 167Q161 162 161 159T160 151Q160 122 171 102T216 82Q238 82 254 94T276 129Q277 133 277 136T278 142Q278 161 267 177T238 210T201 243T163 279T135 321T123 373Q123 387 126 404Q133 436 150 462T191 508T245 537T307 548Q373 548 406 510T440 408V405L342 389Z"  />
<glyph unicode="t" horiz-adv-x="278" d="M106 446L126 538H188L219 683H331L300 538H375L355 446H280L213 136Q212 131 212 128T211 120Q211 92 241 92H278L258 -4Q246 -7 234 -8T200 -10Q147 -10 120 10T92 74Q92 82 93 91T96 111L168 446H106Z"  />
<glyph unicode="u" horiz-adv-x="444" d="M506 538L390 0H284L295 54Q274 39 258 27T224 7T188 -5T145 -10Q109 -10 91 10T72 66Q72 74 73 83T76 103L170 538H282L192 121Q191 117 191 109Q191 82 223 82Q241 82 260 92T303 116L394 538H506Z"  />
<glyph unicode="v" horiz-adv-x="389" d="M381 538H495L249 0H140L126 538H240L231 178H233L381 538Z"  />
<glyph unicode="w" horiz-adv-x="556" d="M352 537H435L422 202H424L558 538H666L426 0H336L348 340H346L200 0H110L122 538H230L206 202H208L352 537Z"  />
<glyph unicode="x" horiz-adv-x="389" d="M193 285L137 538H253L277 388L370 538H486L316 287L376 0H260L234 182H232L128 0H12L193 285Z"  />
<glyph unicode="y" horiz-adv-x="389" d="M382 538H495L229 -40Q212 -77 194 -101T153 -141T105 -162T48 -169H1L21 -77H48Q90 -77 110 -55T141 10Q145 30 145 56Q145 62 145 68T144 81L126 538H240L237 194H239L382 538Z"  />
<glyph unicode="z" horiz-adv-x="389" d="M140 446L160 538H475L455 446L169 92H378L359 0H30L49 92L331 446H140Z"  />
<glyph unicode="{" horiz-adv-x="278" d="M76 354Q98 354 119 373T149 434L193 636Q204 684 231 708T318 732H428L418 684H336Q316 684 305 671T289 634L247 440Q240 410 227 389T199 354T170 334T146 326L145 323Q152 322 162 318T180 304T194 280T200 244Q200 225 196 206L154 12Q152 6 152 1Q152 -4 152 -9Q152 -23 158 -30T179 -38H261L251 -86H141Q93 -86 74 -71T54 -25Q54 -17 55 -9T58 10L102 216Q105 232 105 245Q105 271 93 283T64 296L76 354Z"  />
<glyph unicode="|" horiz-adv-x="222" d="M220 732H318L157 -10H59L220 732Z"  />
<glyph unicode="}" horiz-adv-x="278" d="M341 292Q319 292 298 273T267 212L224 10Q213 -38 186 -62T99 -86H-10L0 -38H81Q101 -38 112 -25T128 12L170 206Q177 236 190 257T218 292T247 312T271 320V323Q264 324 255 328T237 342T223 366T217 402Q217 421 221 440L263 634Q265 640 265 645Q265 650 265 655Q265 669 259 676T238 684H156L166 732H276Q324 732 343 717T363 671Q363 663 362 655T359 636L315 430Q311 415 311 400Q311 374 323 362T353 350L341 292Z"  />
<glyph unicode="~" horiz-adv-x="600" d="M592 249Q575 236 559 223T524 198T486 179T443 171Q415 171 393 180T348 204Q329 216 302 225T239 235Q206 235 183 215T142 171L116 257Q130 270 145 283T179 308T219 327T266 335Q292 335 318 326T370 303Q396 291 417 281T465 271Q495 271 519 291T567 335L592 249Z"  />
<glyph unicode="&#xA0;" horiz-adv-x="222" />
<glyph unicode="&#xA1;" horiz-adv-x="278" d="M314 538L288 420H170L196 538H314ZM162 -184H36L168 326H250L162 -184Z"  />
<glyph unicode="&#xA2;" horiz-adv-x="444" d="M339 465Q334 466 323 466Q291 466 267 446T231 378L188 180Q187 175 187 165Q187 160 187 156Q187 152 188 148H190L339 465ZM375 364L378 378Q382 394 382 409Q382 425 376 437L212 100Q223 92 242 92Q274 92 298 112T332 180L340 214H452L449 200Q439 156 422 119T377 56T312 15T223 0Q197 0 180 4L121 -116H46L118 29Q94 46 84 72T73 133Q73 162 81 200L115 358Q125 402 142 439T188 502T254 543T343 558Q352 558 359 558T375 556L438 684H512L438 534Q463 517 474 490T486 427Q486 396 479 364H375Z"  />
<glyph unicode="&#xA3;" horiz-adv-x="444" d="M55 97Q80 105 98 120T131 161T157 226T181 319H104L122 403H185Q185 417 185 431T184 460Q184 491 185 518T192 567Q209 645 258 688T393 732Q520 732 520 610Q520 573 510 530H408Q414 567 414 590Q414 619 404 629T370 640Q321 640 306 576Q301 553 300 532T299 487V444Q299 434 299 424Q299 414 298 403H397L379 319H289Q281 286 274 258T257 205T237 158T210 116Q223 105 239 99T274 92Q290 92 302 100T323 124T338 158T349 199H449L436 140Q420 69 377 30T270 -10Q232 -10 204 3T153 38Q123 20 94 7T32 -10L55 97Z"  />
<glyph unicode="&#xA4;" horiz-adv-x="444" d="M188 361Q185 346 185 333Q185 294 209 269T274 244Q297 244 319 253T360 277T392 314T412 361Q415 374 415 387Q415 427 390 452T325 478Q302 478 280 469T239 444T207 407T188 361ZM417 146L379 194Q352 177 320 168T256 158Q223 158 195 167T146 194L89 146L51 199L108 245Q91 277 91 317Q91 336 96 361Q103 393 119 423T158 477L121 523L182 576L219 528Q247 545 279 554T344 564Q376 564 404 555T452 528L510 576L549 523L492 477Q508 446 508 403Q508 380 504 361Q496 329 480 299T442 245L479 199L417 146Z"  />
<glyph unicode="&#xA5;" horiz-adv-x="444" d="M501 384H380L335 304H483L465 220H317L270 0H174L221 220H73L91 304H239L230 384H109L127 468H214L178 722H278L314 423H316L478 722H578L432 468H519L501 384Z"  />
<glyph unicode="&#xA6;" horiz-adv-x="222" d="M252 426H154L220 732H318L252 426ZM157 -10H59L126 296H224L157 -10Z"  />
<glyph unicode="&#xA7;" horiz-adv-x="500" d="M230 395Q230 381 245 353T280 297T322 247T358 226Q378 226 394 239T414 270V273Q414 286 400 313T365 369T322 419T283 441Q262 441 248 429T230 399V395ZM463 602Q457 610 451 619T438 636T420 649T398 654Q346 654 336 608Q335 604 335 597Q335 577 348 556T380 513T423 466T465 416T498 362T511 305Q511 292 508 280Q497 231 462 198T375 162Q389 145 397 128T405 87Q405 70 401 54Q395 24 380 0T343 -42T296 -70T240 -80Q185 -80 152 -58T88 1L173 58Q181 35 195 17T239 -2Q265 -2 284 10T308 48Q309 52 309 59Q309 79 296 101T264 148T222 199T180 253T147 309T134 367Q134 373 134 379Q134 385 136 391Q147 442 184 471T272 505Q241 532 241 578Q241 595 245 610Q256 663 299 697T415 732Q461 732 493 709T543 652L463 602Z"  />
<glyph unicode="&#xA8;" horiz-adv-x="222" d="M242 722L218 614H110L134 722H242ZM268 614L292 722H400L376 614H268Z"  />
<glyph unicode="&#xA9;" horiz-adv-x="800" d="M659 299Q645 262 622 233T571 184T510 153T444 142Q403 142 372 154T319 189T286 241T274 308Q274 334 280 363Q290 411 313 451T370 521T446 567T538 584Q604 584 644 548T685 443V430H607Q607 468 583 487T521 506Q464 506 426 467T375 365Q370 342 370 323Q370 278 393 249T461 220Q503 220 534 240T578 299H659ZM760 361Q768 399 768 430Q768 480 752 521T705 592T633 638T541 654Q482 654 426 633T324 572T244 479T196 361Q192 342 190 325T188 291Q188 241 204 200T250 130T321 84T414 68Q472 68 528 89T631 150T712 243T760 361ZM397 -10Q331 -10 275 10T178 67T113 157T89 276Q89 316 98 361Q116 445 162 513T271 630T408 705T558 732Q624 732 680 712T778 655T843 564T867 444Q867 404 858 361Q840 276 794 208T684 91T547 16T397 -10Z"  />
<glyph unicode="&#xAA;" horiz-adv-x="266" d="M284 559Q234 536 217 520T196 482Q195 479 195 474Q195 456 219 456Q234 456 247 465T269 486L284 559ZM150 631Q164 680 202 706T294 732Q338 732 361 716T384 668Q384 657 381 644L336 436Q334 428 334 419Q334 410 334 402H264V406V418V423Q241 408 220 402T173 396Q142 396 128 410T113 449Q113 454 113 459T115 469Q126 522 171 555T297 616L301 635Q302 640 302 643T303 650Q303 672 275 672Q253 672 243 661T228 631H150Z"  />
<glyph unicode="&#xAB;" horiz-adv-x="500" d="M465 115H369L288 270L436 423H535L385 269L465 115ZM298 115H202L121 270L269 423H368L218 269L298 115Z"  />
<glyph unicode="&#xAC;" horiz-adv-x="600" d="M521 308H113L134 406H543H640L574 99H476L521 308Z"  />
<glyph unicode="&#xAD;" horiz-adv-x="333" d="M92 223L112 315H357L337 223H92Z"  />
<glyph unicode="&#xAE;" horiz-adv-x="800" d="M419 395H490Q535 395 556 409T584 453Q586 463 586 467Q586 488 568 496T510 505H443L419 395ZM367 154H285L375 569H532Q599 569 634 550T670 482Q670 463 666 446Q654 389 619 364T542 335L603 154H512L457 331H405L367 154ZM760 361Q768 399 768 430Q768 480 752 521T705 592T633 638T541 654Q482 654 426 633T324 572T244 479T196 361Q192 342 190 325T188 291Q188 241 204 200T250 130T321 84T414 68Q472 68 528 89T631 150T712 243T760 361ZM397 -10Q331 -10 275 10T178 67T113 157T89 276Q89 316 98 361Q116 445 162 513T271 630T408 705T558 732Q624 732 680 712T778 655T843 564T867 444Q867 404 858 361Q840 276 794 208T684 91T547 16T397 -10Z"  />
<glyph unicode="&#xAF;" horiz-adv-x="222" d="M115 701H409L395 637H101L115 701Z"  />
<glyph unicode="&#xB0;" horiz-adv-x="400" d="M308 502Q344 502 372 527T409 589Q410 594 410 599T411 609Q411 638 394 657T346 676Q310 676 282 651T245 589Q244 584 244 579T243 569Q243 540 260 521T308 502ZM296 446Q243 446 212 477T180 558Q180 572 183 589Q189 619 206 645T246 690T299 721T358 732Q411 732 442 701T474 620Q474 605 471 589Q465 559 448 533T408 488T355 457T296 446Z"  />
<glyph unicode="&#xB1;" horiz-adv-x="600" d="M68 98H574L553 0H47L68 98ZM360 506H458L428 369H632L611 271H407L378 134H280L309 271H105L126 369H330L360 506Z"  />
<glyph unicode="&#xB2;" horiz-adv-x="266" d="M77 292L94 373Q188 458 236 517T295 624Q295 626 295 628T296 632Q296 652 273 652Q259 652 248 642T233 618L229 599H143L147 619Q152 643 166 663T200 699T246 723T301 732Q345 732 368 710T391 655Q391 650 391 646T389 636Q383 609 373 582T343 525T289 457T203 372H329L312 292H77Z"  />
<glyph unicode="&#xB3;" horiz-adv-x="266" d="M196 418L191 397Q190 393 190 387Q190 366 212 366Q226 366 234 375T247 405L253 430Q256 443 256 453Q256 473 244 478T207 484L223 558Q251 558 267 568T291 616Q292 621 292 624T293 632Q293 656 273 656Q260 656 253 648T242 628L239 611H155L159 631Q169 676 205 704T294 732Q344 732 365 708T387 648Q387 634 384 621Q376 583 362 561T315 522Q335 511 343 497T352 463Q352 453 350 441T345 414Q331 349 295 318T192 286Q150 286 126 304T101 360Q101 377 105 393L110 418H196Z"  />
<glyph unicode="&#xB4;" horiz-adv-x="222" d="M253 602H170L280 746H415L253 602Z"  />
<glyph unicode="&#xB5;" horiz-adv-x="444" d="M506 538L390 0H284L295 54Q276 40 261 30T230 11T199 -3T163 -10L129 -170H17L170 538H282L192 121Q191 117 191 109Q191 82 223 82Q241 82 260 92T303 116L394 538H506Z"  />
<glyph unicode="&#xB6;" horiz-adv-x="500" d="M271 352Q196 352 156 390T116 489Q116 500 117 511T121 534Q132 584 154 620T209 678T281 711T370 722H431H521H601H658L644 658H588L428 -80H346L506 658H419L259 -80H177L271 352Z"  />
<glyph unicode="&#xB7;" horiz-adv-x="222" d="M98 253Q104 281 127 300T180 320Q204 320 219 305T234 267Q234 263 234 260T232 253Q226 224 203 205T151 186Q126 186 111 200T96 238Q96 243 98 253Z"  />
<glyph unicode="&#xB8;" horiz-adv-x="222" d="M-27 -163Q-16 -169 2 -174T34 -180Q60 -180 78 -168T101 -139Q102 -136 102 -131Q102 -116 90 -110T62 -103Q42 -103 25 -110L7 -92L95 0H143L89 -60Q94 -59 99 -59T110 -58Q139 -60 162 -74T186 -118Q186 -122 186 -125T184 -134Q179 -158 165 -177T130 -209T86 -229T38 -236Q3 -236 -20 -227T-55 -213L-27 -163Z"  />
<glyph unicode="&#xB9;" horiz-adv-x="266" d="M229 627H177L188 675Q220 686 247 700T299 732H348L253 292H157L229 627Z"  />
<glyph unicode="&#xBA;" horiz-adv-x="266" d="M297 619Q300 632 300 641Q300 668 277 668Q247 668 235 619L212 509Q209 497 209 487Q209 460 232 460Q264 460 274 509L297 619ZM152 612Q163 665 196 698T291 732Q342 732 362 711T383 653Q383 643 382 633T378 612L357 517Q346 463 314 430T218 396Q168 396 147 418T126 477Q126 494 131 517L152 612Z"  />
<glyph unicode="&#xBB;" horiz-adv-x="500" d="M231 269L147 423H246L328 270L179 115H83L231 269ZM398 269L314 423H413L495 270L346 115H250L398 269Z"  />
<glyph unicode="&#xBC;" horiz-adv-x="666" d="M550 176L578 309H576L486 176H550ZM237 627H185L196 675Q228 686 255 700T307 731H356L261 292H165L237 627ZM71 -10L642 732H733L162 -10H71ZM533 100H391L408 180L592 433H687L632 176H670L653 100H615L594 0H512L533 100Z"  />
<glyph unicode="&#xBD;" horiz-adv-x="666" d="M235 627H183L194 675Q226 686 253 700T305 732H354L259 292H163L235 627ZM398 0L415 81Q508 166 556 225T615 332Q616 335 616 341Q616 360 593 360Q579 360 568 350T554 326L550 307H464L468 327Q473 351 487 371T521 407T567 431T622 440Q666 440 689 418T712 363Q712 358 712 354T710 344Q704 317 694 290T663 233T610 165T524 80H650L633 0H398ZM63 -10L634 732H725L154 -10H63Z"  />
<glyph unicode="&#xBE;" horiz-adv-x="666" d="M550 176L578 309H576L486 176H550ZM206 418L201 397Q200 393 200 387Q200 366 222 366Q236 366 244 375T257 405L263 430Q266 443 266 453Q266 473 254 478T217 484L233 558Q261 558 277 568T301 616Q302 621 302 624T303 632Q303 656 283 656Q270 656 263 648T252 628L249 611H165L169 631Q179 676 215 704T304 732Q354 732 375 708T397 648Q397 634 394 621Q386 583 372 561T325 522Q345 511 353 497T362 463Q362 453 360 441T355 414Q341 349 305 318T202 286Q160 286 136 304T111 360Q111 377 115 393L120 418H206ZM90 -10L661 732H752L181 -10H90ZM533 100H391L408 180L592 433H687L632 176H670L653 100H615L594 0H512L533 100Z"  />
<glyph unicode="&#xBF;" horiz-adv-x="389" d="M381 538L355 420H237L263 538H381ZM322 326L304 242Q293 190 268 148T214 69Q187 33 164 2T135 -57Q134 -61 134 -68Q134 -82 142 -92T167 -102Q183 -102 196 -95T220 -77T240 -53T255 -26L343 -62Q305 -128 256 -161T134 -194Q84 -194 50 -165T16 -87Q16 -74 19 -60Q31 -5 57 29T114 95Q129 111 144 128T172 166T196 213T214 272L226 326H322Z"  />
<glyph unicode="&#xC0;" horiz-adv-x="444" d="M230 268H330L348 578H346L230 268ZM132 0H12L301 722H455L432 0H312L324 160H188L132 0ZM274 904H409L457 760H374L274 904Z"  />
<glyph unicode="&#xC1;" horiz-adv-x="444" d="M230 268H330L348 578H346L230 268ZM132 0H12L301 722H455L432 0H312L324 160H188L132 0ZM398 760H315L425 904H560L398 760Z"  />
<glyph unicode="&#xC2;" horiz-adv-x="444" d="M230 268H330L348 578H346L230 268ZM132 0H12L301 722H455L432 0H312L324 160H188L132 0ZM362 904H472L537 760H445L405 849L327 760H235L362 904Z"  />
<glyph unicode="&#xC3;" horiz-adv-x="444" d="M230 268H330L348 578H346L230 268ZM132 0H12L301 722H455L432 0H312L324 160H188L132 0ZM577 891Q568 870 557 849T530 811T494 784T449 773Q431 773 417 779T388 793Q374 801 361 806T332 812Q309 812 298 801T281 768H225Q234 789 245 810T272 848T308 875T353 886Q371 886 385 880T414 867Q428 860 441 854T470 847Q493 847 504 858T521 891H577Z"  />
<glyph unicode="&#xC4;" horiz-adv-x="444" d="M230 268H330L348 578H346L230 268ZM132 0H12L301 722H455L432 0H312L324 160H188L132 0ZM388 880L364 772H256L280 880H388ZM414 772L438 880H546L522 772H414Z"  />
<glyph unicode="&#xC5;" horiz-adv-x="444" d="M230 268H330L348 578H346L230 268ZM132 0H12L301 722H455L432 0H312L324 160H188L132 0ZM356 862Q355 858 355 851Q355 833 366 822T397 810Q419 810 437 825T460 862Q461 866 461 873Q461 891 450 902T419 914Q397 914 379 899T356 862ZM306 862Q310 883 322 901T351 934T388 956T430 964Q467 964 489 941T512 883Q512 878 512 872Q512 867 510 862Q505 841 493 823T465 790T428 768T386 760Q349 760 327 783T304 841Q304 846 304 851Q304 857 306 862Z"  />
<glyph unicode="&#xC6;" horiz-adv-x="722" d="M394 278L470 632H468L284 278H394ZM401 722H488H612H826L802 614H590L550 428H714L691 320H527L481 108H707L684 0H458H334L370 170H226L138 0H12L401 722Z"  />
<glyph unicode="&#xC7;" horiz-adv-x="500" d="M111 -163Q122 -169 140 -174T173 -180Q199 -180 217 -168T240 -139Q241 -136 241 -131Q241 -116 229 -110T201 -103Q181 -103 164 -110L146 -92L225 -9Q155 -4 124 34T92 127Q92 147 97 175L178 547Q186 585 205 619T252 678T320 717T408 732Q446 732 474 721T520 691T546 646T555 589Q555 562 549 534L538 481H414L426 537Q430 553 430 569Q430 598 418 611T385 624Q347 624 329 605T301 544L222 178Q218 161 218 144Q218 121 230 110T271 98Q305 98 322 117T347 171L365 258H489L471 175Q463 139 447 108T406 52T348 12T274 -8L228 -60Q233 -59 238 -59T249 -58Q278 -60 301 -74T325 -118Q325 -122 325 -125T323 -134Q318 -158 304 -177T269 -209T225 -229T177 -236Q141 -236 118 -227T83 -213L111 -163Z"  />
<glyph unicode="&#xC8;" horiz-adv-x="444" d="M184 0H60L216 722H340H548L524 614H316L276 428H436L413 320H253L207 108H429L406 0H184ZM286 904H421L469 760H386L286 904Z"  />
<glyph unicode="&#xC9;" horiz-adv-x="444" d="M184 0H60L216 722H340H548L524 614H316L276 428H436L413 320H253L207 108H429L406 0H184ZM410 760H327L437 904H572L410 760Z"  />
<glyph unicode="&#xCA;" horiz-adv-x="444" d="M184 0H60L216 722H340H548L524 614H316L276 428H436L413 320H253L207 108H429L406 0H184ZM374 903H484L549 759H457L417 848L339 759H247L374 903Z"  />
<glyph unicode="&#xCB;" horiz-adv-x="444" d="M184 0H60L216 722H340H548L524 614H316L276 428H436L413 320H253L207 108H429L406 0H184ZM400 880L376 772H268L292 880H400ZM426 772L450 880H558L534 772H426Z"  />
<glyph unicode="&#xCC;" horiz-adv-x="278" d="M77 0L233 722H357L201 0H77ZM191 904H326L374 760H291L191 904Z"  />
<glyph unicode="&#xCD;" horiz-adv-x="278" d="M77 0L233 722H357L201 0H77ZM315 760H232L342 904H477L315 760Z"  />
<glyph unicode="&#xCE;" horiz-adv-x="278" d="M77 0L233 722H357L201 0H77ZM279 904H389L454 760H362L322 849L244 760H152L279 904Z"  />
<glyph unicode="&#xCF;" horiz-adv-x="278" d="M77 0L233 722H357L201 0H77ZM305 880L281 772H173L197 880H305ZM331 772L355 880H463L439 772H331Z"  />
<glyph unicode="&#xD0;" horiz-adv-x="500" d="M327 320H253L206 102H249Q298 102 322 124T359 203L428 519Q434 544 434 564Q434 596 417 608T361 620H318L276 428H350L327 320ZM112 428H152L216 722H340H400Q558 722 558 580Q558 546 549 504L487 218Q463 106 402 53T244 0H183H60L129 320H89L112 428Z"  />
<glyph unicode="&#xD1;" horiz-adv-x="500" d="M60 0L216 722H331L392 309H394L484 722H596L440 0H332L271 451H269L172 0H60ZM605 891Q596 870 585 849T558 811T522 784T477 773Q459 773 445 779T416 793Q402 801 389 806T360 812Q337 812 326 801T309 768H253Q262 789 273 810T300 848T336 875T381 886Q399 886 413 880T442 867Q456 860 469 854T498 847Q521 847 532 858T549 891H605Z"  />
<glyph unicode="&#xD2;" horiz-adv-x="500" d="M222 178Q218 161 218 144Q218 121 230 110T271 98Q309 98 327 117T354 178L433 544Q438 566 438 579Q438 602 426 613T385 624Q347 624 329 605T301 544L222 178ZM178 547Q186 585 205 619T252 678T320 717T408 732Q489 732 526 694T564 596Q564 572 558 547L477 175Q469 137 450 103T403 44T335 5T247 -10Q166 -10 129 28T91 126Q91 149 97 175L178 547ZM302 904H437L485 760H402L302 904Z"  />
<glyph unicode="&#xD3;" horiz-adv-x="500" d="M222 178Q218 161 218 144Q218 121 230 110T271 98Q309 98 327 117T354 178L433 544Q438 566 438 579Q438 602 426 613T385 624Q347 624 329 605T301 544L222 178ZM178 547Q186 585 205 619T252 678T320 717T408 732Q489 732 526 694T564 596Q564 572 558 547L477 175Q469 137 450 103T403 44T335 5T247 -10Q166 -10 129 28T91 126Q91 149 97 175L178 547ZM426 760H343L453 904H588L426 760Z"  />
<glyph unicode="&#xD4;" horiz-adv-x="500" d="M222 178Q218 161 218 144Q218 121 230 110T271 98Q309 98 327 117T354 178L433 544Q438 566 438 579Q438 602 426 613T385 624Q347 624 329 605T301 544L222 178ZM178 547Q186 585 205 619T252 678T320 717T408 732Q489 732 526 694T564 596Q564 572 558 547L477 175Q469 137 450 103T403 44T335 5T247 -10Q166 -10 129 28T91 126Q91 149 97 175L178 547ZM390 904H500L565 760H473L433 849L355 760H263L390 904Z"  />
<glyph unicode="&#xD5;" horiz-adv-x="500" d="M222 178Q218 161 218 144Q218 121 230 110T271 98Q309 98 327 117T354 178L433 544Q438 566 438 579Q438 602 426 613T385 624Q347 624 329 605T301 544L222 178ZM178 547Q186 585 205 619T252 678T320 717T408 732Q489 732 526 694T564 596Q564 572 558 547L477 175Q469 137 450 103T403 44T335 5T247 -10Q166 -10 129 28T91 126Q91 149 97 175L178 547ZM605 891Q596 870 585 849T558 811T522 784T477 773Q459 773 445 779T416 793Q402 801 389 806T360 812Q337 812 326 801T309 768H253Q262 789 273 810T300 848T336 875T381 886Q399 886 413 880T442 867Q456 860 469 854T498 847Q521 847 532 858T549 891H605Z"  />
<glyph unicode="&#xD6;" horiz-adv-x="500" d="M222 178Q218 161 218 144Q218 121 230 110T271 98Q309 98 327 117T354 178L433 544Q438 566 438 579Q438 602 426 613T385 624Q347 624 329 605T301 544L222 178ZM178 547Q186 585 205 619T252 678T320 717T408 732Q489 732 526 694T564 596Q564 572 558 547L477 175Q469 137 450 103T403 44T335 5T247 -10Q166 -10 129 28T91 126Q91 149 97 175L178 547ZM416 880L392 772H284L308 880H416ZM442 772L466 880H574L550 772H442Z"  />
<glyph unicode="&#xD7;" horiz-adv-x="600" d="M424 253L568 70L484 0L339 184L116 0L62 70L285 253L141 437L225 506L369 322L593 506L647 437L424 253Z"  />
<glyph unicode="&#xD8;" horiz-adv-x="500" d="M223 121Q229 98 271 98Q309 98 327 117T354 178L407 424H405L223 121ZM437 582Q437 603 425 613T385 624Q347 624 329 605T301 544L239 257H241L437 582ZM84 -120H2L109 56Q92 86 92 128Q92 139 93 151T97 175L178 547Q186 585 205 619T252 678T320 717T408 732Q468 732 506 708L565 804H646L554 652Q563 628 563 596Q563 584 562 572T558 547L477 175Q469 137 450 103T403 44T335 5T247 -10Q197 -10 161 7L84 -120Z"  />
<glyph unicode="&#xD9;" horiz-adv-x="500" d="M216 722H340L222 177Q218 162 218 147Q218 98 271 98Q336 98 354 177L472 722H596L479 182Q459 88 398 39T247 -10Q172 -10 132 24T92 125Q92 138 94 152T99 182L216 722ZM302 904H437L485 760H402L302 904Z"  />
<glyph unicode="&#xDA;" horiz-adv-x="500" d="M216 722H340L222 177Q218 162 218 147Q218 98 271 98Q336 98 354 177L472 722H596L479 182Q459 88 398 39T247 -10Q172 -10 132 24T92 125Q92 138 94 152T99 182L216 722ZM426 760H343L453 904H588L426 760Z"  />
<glyph unicode="&#xDB;" horiz-adv-x="500" d="M216 722H340L222 177Q218 162 218 147Q218 98 271 98Q336 98 354 177L472 722H596L479 182Q459 88 398 39T247 -10Q172 -10 132 24T92 125Q92 138 94 152T99 182L216 722ZM390 904H500L565 760H473L433 849L355 760H263L390 904Z"  />
<glyph unicode="&#xDC;" horiz-adv-x="500" d="M216 722H340L222 177Q218 162 218 147Q218 98 271 98Q336 98 354 177L472 722H596L479 182Q459 88 398 39T247 -10Q172 -10 132 24T92 125Q92 138 94 152T99 182L216 722ZM416 880L392 772H284L308 880H416ZM442 772L466 880H574L550 772H442Z"  />
<glyph unicode="&#xDD;" horiz-adv-x="444" d="M284 0H160L224 300L166 722H292L319 447H321L464 722H590L348 300L284 0ZM398 760H315L425 904H560L398 760Z"  />
<glyph unicode="&#xDE;" horiz-adv-x="500" d="M239 258H287Q317 258 339 263T376 281T400 315T417 369Q420 384 422 396T424 419Q424 454 403 467T335 480H287L239 258ZM309 582H363Q457 582 503 550T550 444Q550 411 541 369Q529 311 507 271T451 205T373 168T271 156H217L184 0H60L216 722H340L309 582Z"  />
<glyph unicode="&#xDF;" horiz-adv-x="444" d="M54 0L170 540Q190 634 242 681T370 728Q408 728 434 719T476 694T499 655T506 605Q506 570 497 531Q484 471 460 437T395 397V395Q426 384 441 360T457 292Q457 257 446 204Q433 145 417 106T381 43T338 10T286 0H220L240 95Q252 92 266 92Q289 92 300 108T320 159L342 260Q345 276 345 290Q345 338 297 338L317 430Q332 432 342 436T358 448T369 469T379 502L394 572Q397 587 397 598Q397 636 356 636Q327 636 311 619T287 562L166 0H54Z"  />
<glyph unicode="&#xE0;" horiz-adv-x="444" d="M332 273Q289 251 261 233T214 198T187 165T174 131Q173 126 173 122T172 114Q172 82 215 82Q238 82 260 97T301 132L332 273ZM124 380Q146 462 203 505T340 548Q406 548 441 522T477 443Q477 433 476 423T472 402L397 57Q394 44 393 29T392 0H285Q287 11 287 21T288 42Q250 16 218 3T145 -10Q98 -10 76 14T54 76Q54 95 58 111Q67 155 89 190T148 254T234 307T349 355L356 387Q359 402 359 413Q359 456 316 456Q278 456 262 436T236 380H124ZM240 746H375L423 602H340L240 746Z"  />
<glyph unicode="&#xE1;" horiz-adv-x="444" d="M332 273Q289 251 261 233T214 198T187 165T174 131Q173 126 173 122T172 114Q172 82 215 82Q238 82 260 97T301 132L332 273ZM124 380Q146 462 203 505T340 548Q406 548 441 522T477 443Q477 433 476 423T472 402L397 57Q394 44 393 29T392 0H285Q287 11 287 21T288 42Q250 16 218 3T145 -10Q98 -10 76 14T54 76Q54 95 58 111Q67 155 89 190T148 254T234 307T349 355L356 387Q359 402 359 413Q359 456 316 456Q278 456 262 436T236 380H124ZM364 602H281L391 746H526L364 602Z"  />
<glyph unicode="&#xE2;" horiz-adv-x="444" d="M332 273Q289 251 261 233T214 198T187 165T174 131Q173 126 173 122T172 114Q172 82 215 82Q238 82 260 97T301 132L332 273ZM124 380Q146 462 203 505T340 548Q406 548 441 522T477 443Q477 433 476 423T472 402L397 57Q394 44 393 29T392 0H285Q287 11 287 21T288 42Q250 16 218 3T145 -10Q98 -10 76 14T54 76Q54 95 58 111Q67 155 89 190T148 254T234 307T349 355L356 387Q359 402 359 413Q359 456 316 456Q278 456 262 436T236 380H124ZM328 746H438L503 602H411L371 691L293 602H201L328 746Z"  />
<glyph unicode="&#xE3;" horiz-adv-x="444" d="M332 273Q289 251 261 233T214 198T187 165T174 131Q173 126 173 122T172 114Q172 82 215 82Q238 82 260 97T301 132L332 273ZM124 380Q146 462 203 505T340 548Q406 548 441 522T477 443Q477 433 476 423T472 402L397 57Q394 44 393 29T392 0H285Q287 11 287 21T288 42Q250 16 218 3T145 -10Q98 -10 76 14T54 76Q54 95 58 111Q67 155 89 190T148 254T234 307T349 355L356 387Q359 402 359 413Q359 456 316 456Q278 456 262 436T236 380H124ZM543 733Q534 712 523 691T496 653T460 626T415 615Q397 615 383 621T354 635Q340 643 327 648T298 654Q275 654 264 643T247 610H191Q200 631 211 652T238 690T274 717T319 728Q337 728 351 722T380 709Q394 702 407 696T436 689Q459 689 470 700T487 733H543Z"  />
<glyph unicode="&#xE4;" horiz-adv-x="444" d="M332 273Q289 251 261 233T214 198T187 165T174 131Q173 126 173 122T172 114Q172 82 215 82Q238 82 260 97T301 132L332 273ZM124 380Q146 462 203 505T340 548Q406 548 441 522T477 443Q477 433 476 423T472 402L397 57Q394 44 393 29T392 0H285Q287 11 287 21T288 42Q250 16 218 3T145 -10Q98 -10 76 14T54 76Q54 95 58 111Q67 155 89 190T148 254T234 307T349 355L356 387Q359 402 359 413Q359 456 316 456Q278 456 262 436T236 380H124ZM353 722L329 614H221L245 722H353ZM379 614L403 722H511L487 614H379Z"  />
<glyph unicode="&#xE5;" horiz-adv-x="444" d="M332 273Q289 251 261 233T214 198T187 165T174 131Q173 126 173 122T172 114Q172 82 215 82Q238 82 260 97T301 132L332 273ZM124 380Q146 462 203 505T340 548Q406 548 441 522T477 443Q477 433 476 423T472 402L397 57Q394 44 393 29T392 0H285Q287 11 287 21T288 42Q250 16 218 3T145 -10Q98 -10 76 14T54 76Q54 95 58 111Q67 155 89 190T148 254T234 307T349 355L356 387Q359 402 359 413Q359 456 316 456Q278 456 262 436T236 380H124ZM322 704Q321 700 321 693Q321 675 332 664T363 652Q385 652 403 667T426 704Q427 708 427 715Q427 733 416 744T385 756Q363 756 345 741T322 704ZM272 704Q276 725 288 743T317 776T354 798T396 806Q433 806 455 783T478 725Q478 720 478 714Q478 709 476 704Q471 683 459 665T431 632T394 610T352 602Q315 602 293 625T270 683Q270 688 270 693Q270 699 272 704Z"  />
<glyph unicode="&#xE6;" horiz-adv-x="667" d="M580 340L586 368Q591 391 591 406Q591 456 543 456Q513 456 494 436T463 368L457 340H580ZM331 273Q288 251 260 233T214 198T187 165T174 131Q173 126 173 122T172 114Q172 82 215 82Q238 82 260 97T300 132L331 273ZM437 248L420 170Q418 159 417 150T415 132Q415 82 462 82Q492 82 512 102T543 170L546 182H658Q648 139 631 104T587 44T525 4T442 -10Q392 -10 363 9T321 60Q288 36 263 22T219 1T184 -8T157 -10Q102 -10 78 14T54 77Q54 95 58 111Q67 155 89 190T147 254T233 307T348 355L355 387Q358 402 358 414Q358 456 316 456Q278 456 262 436T236 380H124Q146 462 201 505T324 548Q411 548 442 498Q468 524 501 536T572 548Q642 548 672 514T702 420Q702 403 700 386T694 348L672 248H437Z"  />
<glyph unicode="&#xE7;" horiz-adv-x="444" d="M83 -163Q94 -169 112 -174T145 -180Q171 -180 189 -168T212 -139Q213 -136 213 -131Q213 -116 201 -110T173 -103Q153 -103 136 -110L118 -92L197 -9Q134 -4 107 30T80 118Q80 151 89 190L123 348Q132 392 149 429T193 492T255 533T340 548Q415 548 447 514T479 419Q479 404 478 388T472 354H360L363 368Q368 391 368 406Q368 456 320 456Q290 456 270 436T239 368L196 170Q192 151 192 133Q192 106 204 94T239 82Q269 82 289 102T320 170L328 204H440L437 190Q419 107 374 54T246 -8L200 -60Q205 -59 210 -59T221 -58Q250 -60 273 -74T297 -118Q297 -122 297 -125T295 -134Q290 -158 276 -177T241 -209T197 -229T149 -236Q113 -236 90 -227T55 -213L83 -163Z"  />
<glyph unicode="&#xE8;" horiz-adv-x="444" d="M357 340L363 368Q368 391 368 406Q368 456 320 456Q290 456 270 436T239 368L233 340H357ZM449 248H213L196 170Q192 151 192 133Q192 106 204 94T239 82Q269 82 289 102T320 170L323 182H435Q425 139 408 104T364 44T302 4T219 -10Q144 -10 112 24T80 118Q80 151 89 190L123 348Q132 392 149 429T193 492T255 533T340 548Q415 548 447 514T479 419Q479 388 471 348L449 248ZM240 746H375L423 602H340L240 746Z"  />
<glyph unicode="&#xE9;" horiz-adv-x="444" d="M357 340L363 368Q368 391 368 406Q368 456 320 456Q290 456 270 436T239 368L233 340H357ZM449 248H213L196 170Q192 151 192 133Q192 106 204 94T239 82Q269 82 289 102T320 170L323 182H435Q425 139 408 104T364 44T302 4T219 -10Q144 -10 112 24T80 118Q80 151 89 190L123 348Q132 392 149 429T193 492T255 533T340 548Q415 548 447 514T479 419Q479 388 471 348L449 248ZM364 602H281L391 746H526L364 602Z"  />
<glyph unicode="&#xEA;" horiz-adv-x="444" d="M357 340L363 368Q368 391 368 406Q368 456 320 456Q290 456 270 436T239 368L233 340H357ZM449 248H213L196 170Q192 151 192 133Q192 106 204 94T239 82Q269 82 289 102T320 170L323 182H435Q425 139 408 104T364 44T302 4T219 -10Q144 -10 112 24T80 118Q80 151 89 190L123 348Q132 392 149 429T193 492T255 533T340 548Q415 548 447 514T479 419Q479 388 471 348L449 248ZM328 746H438L503 602H411L371 691L293 602H201L328 746Z"  />
<glyph unicode="&#xEB;" horiz-adv-x="444" d="M357 340L363 368Q368 391 368 406Q368 456 320 456Q290 456 270 436T239 368L233 340H357ZM449 248H213L196 170Q192 151 192 133Q192 106 204 94T239 82Q269 82 289 102T320 170L323 182H435Q425 139 408 104T364 44T302 4T219 -10Q144 -10 112 24T80 118Q80 151 89 190L123 348Q132 392 149 429T193 492T255 533T340 548Q415 548 447 514T479 419Q479 388 471 348L449 248ZM353 722L329 614H221L245 722H353ZM379 614L403 722H511L487 614H379Z"  />
<glyph unicode="&#xEC;" horiz-adv-x="222" d="M55 0L171 538H283L167 0H55ZM129 746H264L312 602H229L129 746Z"  />
<glyph unicode="&#xED;" horiz-adv-x="222" d="M55 0L171 538H283L167 0H55ZM253 602H170L280 746H415L253 602Z"  />
<glyph unicode="&#xEE;" horiz-adv-x="222" d="M55 0L171 538H283L167 0H55ZM217 746H327L392 602H300L260 691L182 602H90L217 746Z"  />
<glyph unicode="&#xEF;" horiz-adv-x="222" d="M55 0L171 538H283L167 0H55ZM242 722L218 614H110L134 722H242ZM268 614L292 722H400L376 614H268Z"  />
<glyph unicode="&#xF0;" horiz-adv-x="444" d="M354 325Q358 341 358 357Q358 406 309 406Q279 406 259 387T230 325L195 163Q191 146 191 130Q191 82 239 82Q269 82 289 101T319 163L354 325ZM556 648L453 611Q465 576 471 536T478 450Q478 384 463 314L433 174Q424 133 408 99T365 41T303 4T219 -10Q142 -10 110 22T78 112Q78 143 85 174L115 314Q124 355 140 389T183 447T245 484T329 498Q338 498 346 498T366 496Q366 499 366 502T367 509Q367 528 363 545T354 576L241 536L229 608L330 643Q323 657 315 671T295 698L386 722Q408 703 423 676L541 718L556 648Z"  />
<glyph unicode="&#xF1;" horiz-adv-x="444" d="M54 0L170 538H276L264 484Q285 499 302 511T335 531T371 543T414 548Q450 548 469 528T488 471Q488 452 484 435L390 0H278L368 417Q369 420 369 423Q369 427 369 429Q369 443 360 449T336 456Q318 456 299 446T257 422L166 0H54ZM543 733Q534 712 523 691T496 653T460 626T415 615Q397 615 383 621T354 635Q340 643 327 648T298 654Q275 654 264 643T247 610H191Q200 631 211 652T238 690T274 717T319 728Q337 728 351 722T380 709Q394 702 407 696T436 689Q459 689 470 700T487 733H543Z"  />
<glyph unicode="&#xF2;" horiz-adv-x="444" d="M363 368Q368 391 368 406Q368 456 320 456Q290 456 270 436T239 368L196 170Q192 151 192 133Q192 106 204 94T239 82Q269 82 289 102T320 170L363 368ZM123 348Q132 392 149 429T193 492T255 533T340 548Q415 548 447 514T479 419Q479 388 471 348L437 190Q427 146 410 109T367 46T304 5T219 -10Q144 -10 112 24T80 118Q80 151 89 190L123 348ZM240 746H375L423 602H340L240 746Z"  />
<glyph unicode="&#xF3;" horiz-adv-x="444" d="M363 368Q368 391 368 406Q368 456 320 456Q290 456 270 436T239 368L196 170Q192 151 192 133Q192 106 204 94T239 82Q269 82 289 102T320 170L363 368ZM123 348Q132 392 149 429T193 492T255 533T340 548Q415 548 447 514T479 419Q479 388 471 348L437 190Q427 146 410 109T367 46T304 5T219 -10Q144 -10 112 24T80 118Q80 151 89 190L123 348ZM364 602H281L391 746H526L364 602Z"  />
<glyph unicode="&#xF4;" horiz-adv-x="444" d="M363 368Q368 391 368 406Q368 456 320 456Q290 456 270 436T239 368L196 170Q192 151 192 133Q192 106 204 94T239 82Q269 82 289 102T320 170L363 368ZM123 348Q132 392 149 429T193 492T255 533T340 548Q415 548 447 514T479 419Q479 388 471 348L437 190Q427 146 410 109T367 46T304 5T219 -10Q144 -10 112 24T80 118Q80 151 89 190L123 348ZM328 746H438L503 602H411L371 691L293 602H201L328 746Z"  />
<glyph unicode="&#xF5;" horiz-adv-x="444" d="M363 368Q368 391 368 406Q368 456 320 456Q290 456 270 436T239 368L196 170Q192 151 192 133Q192 106 204 94T239 82Q269 82 289 102T320 170L363 368ZM123 348Q132 392 149 429T193 492T255 533T340 548Q415 548 447 514T479 419Q479 388 471 348L437 190Q427 146 410 109T367 46T304 5T219 -10Q144 -10 112 24T80 118Q80 151 89 190L123 348ZM543 733Q534 712 523 691T496 653T460 626T415 615Q397 615 383 621T354 635Q340 643 327 648T298 654Q275 654 264 643T247 610H191Q200 631 211 652T238 690T274 717T319 728Q337 728 351 722T380 709Q394 702 407 696T436 689Q459 689 470 700T487 733H543Z"  />
<glyph unicode="&#xF6;" horiz-adv-x="444" d="M363 368Q368 391 368 406Q368 456 320 456Q290 456 270 436T239 368L196 170Q192 151 192 133Q192 106 204 94T239 82Q269 82 289 102T320 170L363 368ZM123 348Q132 392 149 429T193 492T255 533T340 548Q415 548 447 514T479 419Q479 388 471 348L437 190Q427 146 410 109T367 46T304 5T219 -10Q144 -10 112 24T80 118Q80 151 89 190L123 348ZM353 722L329 614H221L245 722H353ZM379 614L403 722H511L487 614H379Z"  />
<glyph unicode="&#xF7;" horiz-adv-x="600" d="M319 460Q323 476 332 491T355 516T383 533T416 540Q445 540 463 522T481 477Q481 472 481 469T479 460Q476 443 467 429T444 404T414 387T382 380Q353 380 335 398T317 444Q317 448 317 451T319 460ZM229 46Q233 62 242 77T265 102T294 119T327 126Q356 126 373 109T391 64Q391 59 391 55T389 46Q386 29 377 15T354 -10T324 -27T292 -34Q263 -34 245 -16T227 30Q227 34 227 37T229 46ZM91 204L112 302H618L597 204H91Z"  />
<glyph unicode="&#xF8;" horiz-adv-x="444" d="M204 94Q217 82 239 82Q269 82 289 102T320 170L360 353H358L204 94ZM357 442Q346 456 320 456Q290 456 270 436T239 368L197 173H199L357 442ZM82 -120H16L107 33Q93 50 87 72T80 120Q80 152 89 190L123 348Q132 392 149 429T193 492T255 533T340 548Q378 548 409 537L473 646H541L456 503Q480 470 480 419Q480 387 471 348L437 190Q427 146 410 109T367 46T304 5T219 -10Q180 -10 153 1L82 -120Z"  />
<glyph unicode="&#xF9;" horiz-adv-x="444" d="M506 538L390 0H284L295 54Q274 39 258 27T224 7T188 -5T145 -10Q109 -10 91 10T72 66Q72 74 73 83T76 103L170 538H282L192 121Q191 117 191 109Q191 82 223 82Q241 82 260 92T303 116L394 538H506ZM240 746H375L423 602H340L240 746Z"  />
<glyph unicode="&#xFA;" horiz-adv-x="444" d="M506 538L390 0H284L295 54Q274 39 258 27T224 7T188 -5T145 -10Q109 -10 91 10T72 66Q72 74 73 83T76 103L170 538H282L192 121Q191 117 191 109Q191 82 223 82Q241 82 260 92T303 116L394 538H506ZM364 602H281L391 746H526L364 602Z"  />
<glyph unicode="&#xFB;" horiz-adv-x="444" d="M506 538L390 0H284L295 54Q274 39 258 27T224 7T188 -5T145 -10Q109 -10 91 10T72 66Q72 74 73 83T76 103L170 538H282L192 121Q191 117 191 109Q191 82 223 82Q241 82 260 92T303 116L394 538H506ZM328 746H438L503 602H411L371 691L293 602H201L328 746Z"  />
<glyph unicode="&#xFC;" horiz-adv-x="444" d="M506 538L390 0H284L295 54Q274 39 258 27T224 7T188 -5T145 -10Q109 -10 91 10T72 66Q72 74 73 83T76 103L170 538H282L192 121Q191 117 191 109Q191 82 223 82Q241 82 260 92T303 116L394 538H506ZM353 722L329 614H221L245 722H353ZM379 614L403 722H511L487 614H379Z"  />
<glyph unicode="&#xFD;" horiz-adv-x="389" d="M382 538H495L229 -40Q212 -77 194 -101T153 -141T105 -162T48 -169H1L21 -77H48Q90 -77 110 -55T141 10Q145 30 145 56Q145 62 145 68T144 81L126 538H240L237 194H239L382 538ZM337 602H254L364 746H499L337 602Z"  />
<glyph unicode="&#xFE;" horiz-adv-x="444" d="M189 110Q203 98 216 90T247 82Q258 82 269 85T289 99T306 125T320 169L363 369Q369 394 369 411Q369 438 357 447T328 456Q311 456 295 448T258 428L189 110ZM322 722L271 487H273Q303 519 330 533T400 548Q442 548 465 524T488 451Q488 428 482 398L426 140Q410 66 371 28T279 -10Q261 -10 248 -7T223 4T200 22T175 46L129 -170H17L210 722H322Z"  />
<glyph unicode="&#xFF;" horiz-adv-x="389" d="M382 538H495L229 -40Q212 -77 194 -101T153 -141T105 -162T48 -169H1L21 -77H48Q90 -77 110 -55T141 10Q145 30 145 56Q145 62 145 68T144 81L126 538H240L237 194H239L382 538ZM326 722L302 614H194L218 722H326ZM352 614L376 722H484L460 614H352Z"  />
<glyph unicode="&#x100;" horiz-adv-x="444" d="M230 268H330L348 578H346L230 268ZM132 0H12L301 722H455L432 0H312L324 160H188L132 0ZM256 859H550L536 795H242L256 859Z"  />
<glyph unicode="&#x101;" horiz-adv-x="444" d="M332 273Q289 251 261 233T214 198T187 165T174 131Q173 126 173 122T172 114Q172 82 215 82Q238 82 260 97T301 132L332 273ZM124 380Q146 462 203 505T340 548Q406 548 441 522T477 443Q477 433 476 423T472 402L397 57Q394 44 393 29T392 0H285Q287 11 287 21T288 42Q250 16 218 3T145 -10Q98 -10 76 14T54 76Q54 95 58 111Q67 155 89 190T148 254T234 307T349 355L356 387Q359 402 359 413Q359 456 316 456Q278 456 262 436T236 380H124ZM219 701H513L499 637H205L219 701Z"  />
<glyph unicode="&#x102;" horiz-adv-x="444" d="M230 268H330L348 578H346L230 268ZM132 0H12L301 722H455L432 0H312L324 160H188L132 0ZM561 907Q552 878 537 853T500 808T449 777T383 765Q351 765 329 774T293 798T272 833T265 878Q265 885 265 892T267 907H325Q324 903 324 899Q324 896 324 893Q324 861 343 847T398 833Q438 833 463 850T503 907H561Z"  />
<glyph unicode="&#x103;" horiz-adv-x="444" d="M332 273Q289 251 261 233T214 198T187 165T174 131Q173 126 173 122T172 114Q172 82 215 82Q238 82 260 97T301 132L332 273ZM124 380Q146 462 203 505T340 548Q406 548 441 522T477 443Q477 433 476 423T472 402L397 57Q394 44 393 29T392 0H285Q287 11 287 21T288 42Q250 16 218 3T145 -10Q98 -10 76 14T54 76Q54 95 58 111Q67 155 89 190T148 254T234 307T349 355L356 387Q359 402 359 413Q359 456 316 456Q278 456 262 436T236 380H124ZM520 749Q511 720 496 695T459 650T408 619T342 607Q310 607 288 616T252 640T231 675T224 720Q224 727 224 734T226 749H284Q283 745 283 741Q283 738 283 735Q283 703 302 689T357 675Q397 675 422 692T462 749H520Z"  />
<glyph unicode="&#x104;" horiz-adv-x="444" d="M132 0H12L301 722H455L432 0H404Q393 -4 381 -10Q356 -21 333 -36T291 -71T267 -116Q266 -120 266 -127Q266 -145 277 -154T306 -163Q329 -163 356 -150T405 -123L416 -159Q380 -182 341 -200T261 -219Q226 -219 204 -202T181 -149V-138Q181 -133 183 -127Q192 -88 220 -62T286 -18Q310 -8 335 0H312L324 160H188L132 0ZM230 268H330L348 578H346L230 268Z"  />
<glyph unicode="&#x105;" horiz-adv-x="444" d="M124 380Q146 462 203 505T340 548Q406 548 441 522T477 443Q477 433 476 423T472 402L397 57Q394 44 393 29T392 0H359Q350 -5 330 -15Q309 -27 287 -44T249 -82T232 -128Q232 -145 244 -154T273 -163Q296 -163 321 -151T367 -125L378 -161Q341 -184 305 -201T228 -219Q192 -219 170 -202T147 -150Q147 -117 161 -93T199 -50T251 -19Q270 -10 288 -1V21Q288 32 290 44Q250 16 218 3T145 -10Q98 -10 76 14T54 76Q54 95 58 111Q67 155 89 190T148 254T234 307T349 355L356 387Q359 402 359 413Q359 456 316 456Q278 456 262 436T236 380H124ZM332 273Q289 251 261 233T214 198T187 165T174 131Q173 126 173 122T172 114Q172 82 215 82Q238 82 260 97T301 132L332 273Z"  />
<glyph unicode="&#x106;" horiz-adv-x="500" d="M414 481L426 537Q430 553 430 569Q430 598 418 611T385 624Q347 624 329 605T301 544L222 178Q218 161 218 144Q218 121 230 110T271 98Q305 98 322 117T347 171L365 258H489L471 175Q463 137 445 103T398 44T331 5T247 -10Q166 -10 129 28T91 126Q91 149 97 175L178 547Q186 585 205 619T252 678T320 717T408 732Q446 732 474 721T520 691T546 646T555 589Q555 562 549 534L538 481H414ZM420 760H337L447 904H582L420 760Z"  />
<glyph unicode="&#x107;" horiz-adv-x="444" d="M360 354L363 368Q368 391 368 406Q368 456 320 456Q290 456 270 436T239 368L196 170Q192 151 192 133Q192 106 204 94T239 82Q269 82 289 102T320 170L328 204H440L437 190Q427 146 410 109T367 46T304 5T219 -10Q144 -10 112 24T80 118Q80 151 89 190L123 348Q132 392 149 429T193 492T255 533T340 548Q415 548 447 514T479 419Q479 404 478 388T472 354H360ZM361 602H278L388 746H523L361 602Z"  />
<glyph unicode="&#x108;" horiz-adv-x="500" d="M414 481L426 537Q430 553 430 569Q430 598 418 611T385 624Q347 624 329 605T301 544L222 178Q218 161 218 144Q218 121 230 110T271 98Q305 98 322 117T347 171L365 258H489L471 175Q463 137 445 103T398 44T331 5T247 -10Q166 -10 129 28T91 126Q91 149 97 175L178 547Q186 585 205 619T252 678T320 717T408 732Q446 732 474 721T520 691T546 646T555 589Q555 562 549 534L538 481H414ZM384 904H494L559 760H467L427 849L349 760H257L384 904Z"  />
<glyph unicode="&#x109;" horiz-adv-x="444" d="M360 354L363 368Q368 391 368 406Q368 456 320 456Q290 456 270 436T239 368L196 170Q192 151 192 133Q192 106 204 94T239 82Q269 82 289 102T320 170L328 204H440L437 190Q427 146 410 109T367 46T304 5T219 -10Q144 -10 112 24T80 118Q80 151 89 190L123 348Q132 392 149 429T193 492T255 533T340 548Q415 548 447 514T479 419Q479 404 478 388T472 354H360ZM322 746H432L497 602H405L365 691L287 602H195L322 746Z"  />
<glyph unicode="&#x10A;" horiz-adv-x="500" d="M414 481L426 537Q430 553 430 569Q430 598 418 611T385 624Q347 624 329 605T301 544L222 178Q218 161 218 144Q218 121 230 110T271 98Q305 98 322 117T347 171L365 258H489L471 175Q463 137 445 103T398 44T331 5T247 -10Q166 -10 129 28T91 126Q91 149 97 175L178 547Q186 585 205 619T252 678T320 717T408 732Q446 732 474 721T520 691T546 646T555 589Q555 562 549 534L538 481H414ZM484 880L460 772H352L376 880H484Z"  />
<glyph unicode="&#x10B;" horiz-adv-x="444" d="M360 354L363 368Q368 391 368 406Q368 456 320 456Q290 456 270 436T239 368L196 170Q192 151 192 133Q192 106 204 94T239 82Q269 82 289 102T320 170L328 204H440L437 190Q427 146 410 109T367 46T304 5T219 -10Q144 -10 112 24T80 118Q80 151 89 190L123 348Q132 392 149 429T193 492T255 533T340 548Q415 548 447 514T479 419Q479 404 478 388T472 354H360ZM428 722L404 614H296L320 722H428Z"  />
<glyph unicode="&#x10C;" horiz-adv-x="500" d="M414 481L426 537Q430 553 430 569Q430 598 418 611T385 624Q347 624 329 605T301 544L222 178Q218 161 218 144Q218 121 230 110T271 98Q305 98 322 117T347 171L365 258H489L471 175Q463 137 445 103T398 44T331 5T247 -10Q166 -10 129 28T91 126Q91 149 97 175L178 547Q186 585 205 619T252 678T320 717T408 732Q446 732 474 721T520 691T546 646T555 589Q555 562 549 534L538 481H414ZM460 760H350L285 904H377L417 815L495 904H587L460 760Z"  />
<glyph unicode="&#x10D;" horiz-adv-x="444" d="M360 354L363 368Q368 391 368 406Q368 456 320 456Q290 456 270 436T239 368L196 170Q192 151 192 133Q192 106 204 94T239 82Q269 82 289 102T320 170L328 204H440L437 190Q427 146 410 109T367 46T304 5T219 -10Q144 -10 112 24T80 118Q80 151 89 190L123 348Q132 392 149 429T193 492T255 533T340 548Q415 548 447 514T479 419Q479 404 478 388T472 354H360ZM400 602H290L225 746H317L357 657L435 746H527L400 602Z"  />
<glyph unicode="&#x10E;" horiz-adv-x="500" d="M206 102H249Q298 102 322 124T359 203L428 519Q434 544 434 564Q434 596 417 608T361 620H318L206 102ZM216 722H340H400Q558 722 558 580Q558 546 549 504L487 218Q463 106 402 53T244 0H184H60L216 722ZM436 760H326L261 904H353L393 815L471 904H563L436 760Z"  />
<glyph unicode="&#x10F;" horiz-adv-x="444" d="M370 428Q356 440 343 448T312 456Q289 456 270 439T239 369L196 169Q193 156 192 146T191 128Q191 101 202 92T231 82Q248 82 265 90T301 110L370 428ZM284 0L296 56H294Q258 21 230 6T159 -10Q117 -10 95 14T72 86Q72 110 78 140L134 398Q150 472 188 510T280 548Q298 548 311 545T336 534T359 516T384 492L434 722H546L390 0H284ZM597 629H559L579 722H665L646 631L592 544H551L597 629Z"  />
<glyph unicode="&#x110;" horiz-adv-x="500" d="M327 320H253L206 102H249Q298 102 322 124T359 203L428 519Q434 544 434 564Q434 596 417 608T361 620H318L276 428H350L327 320ZM112 428H152L216 722H340H400Q558 722 558 580Q558 546 549 504L487 218Q463 106 402 53T244 0H183H60L129 320H89L112 428Z"  />
<glyph unicode="&#x111;" horiz-adv-x="444" d="M284 0L296 56H294Q258 21 230 6T159 -10Q117 -10 95 14T72 86Q72 110 78 140L134 398Q150 472 188 510T280 548Q298 548 311 545T336 534T359 516T384 492L405 589H298L314 667H422L434 722H546L534 667H587L571 589H517L390 0H284ZM370 428Q356 440 343 448T312 456Q289 456 270 439T239 369L196 169Q193 156 192 146T191 128Q191 101 202 92T231 82Q248 82 265 90T301 110L370 428Z"  />
<glyph unicode="&#x112;" horiz-adv-x="444" d="M184 0H60L216 722H340H548L524 614H316L276 428H436L413 320H253L207 108H429L406 0H184ZM265 859H559L545 795H251L265 859Z"  />
<glyph unicode="&#x113;" horiz-adv-x="444" d="M357 340L363 368Q368 391 368 406Q368 456 320 456Q290 456 270 436T239 368L233 340H357ZM449 248H213L196 170Q192 151 192 133Q192 106 204 94T239 82Q269 82 289 102T320 170L323 182H435Q425 139 408 104T364 44T302 4T219 -10Q144 -10 112 24T80 118Q80 151 89 190L123 348Q132 392 149 429T193 492T255 533T340 548Q415 548 447 514T479 419Q479 388 471 348L449 248ZM216 701H510L496 637H202L216 701Z"  />
<glyph unicode="&#x114;" horiz-adv-x="444" d="M184 0H60L216 722H340H548L524 614H316L276 428H436L413 320H253L207 108H429L406 0H184ZM569 907Q560 878 545 853T508 808T457 777T391 765Q359 765 337 774T301 798T280 833T273 878Q273 885 273 892T275 907H333Q332 903 332 899Q332 896 332 893Q332 861 351 847T406 833Q446 833 471 850T511 907H569Z"  />
<glyph unicode="&#x115;" horiz-adv-x="444" d="M357 340L363 368Q368 391 368 406Q368 456 320 456Q290 456 270 436T239 368L233 340H357ZM449 248H213L196 170Q192 151 192 133Q192 106 204 94T239 82Q269 82 289 102T320 170L323 182H435Q425 139 408 104T364 44T302 4T219 -10Q144 -10 112 24T80 118Q80 151 89 190L123 348Q132 392 149 429T193 492T255 533T340 548Q415 548 447 514T479 419Q479 388 471 348L449 248ZM525 749Q516 720 501 695T464 650T413 619T347 607Q315 607 293 616T257 640T236 675T229 720Q229 727 229 734T231 749H289Q288 745 288 741Q288 738 288 735Q288 703 307 689T362 675Q402 675 427 692T467 749H525Z"  />
<glyph unicode="&#x116;" horiz-adv-x="444" d="M184 0H60L216 722H340H548L524 614H316L276 428H436L413 320H253L207 108H429L406 0H184ZM469 880L445 772H337L361 880H469Z"  />
<glyph unicode="&#x117;" horiz-adv-x="444" d="M357 340L363 368Q368 391 368 406Q368 456 320 456Q290 456 270 436T239 368L233 340H357ZM449 248H213L196 170Q192 151 192 133Q192 106 204 94T239 82Q269 82 289 102T320 170L323 182H435Q425 139 408 104T364 44T302 4T219 -10Q144 -10 112 24T80 118Q80 151 89 190L123 348Q132 392 149 429T193 492T255 533T340 548Q415 548 447 514T479 419Q479 388 471 348L449 248ZM424 722L400 614H292L316 722H424Z"  />
<glyph unicode="&#x118;" horiz-adv-x="444" d="M301 0H186H60L216 722H341H548L524 614H316L276 428H436L413 320H253L207 108H429L406 0H370Q359 -4 347 -10Q322 -21 299 -36T257 -71T233 -116Q232 -120 232 -127Q232 -145 243 -154T272 -163Q295 -163 322 -150T371 -123L382 -159Q346 -182 307 -200T227 -219Q192 -219 170 -202T147 -149V-138Q147 -133 149 -127Q158 -88 186 -62T252 -18Q276 -8 301 0Z"  />
<glyph unicode="&#x119;" horiz-adv-x="444" d="M449 248H213L196 170Q192 151 192 133Q192 106 204 94T239 82Q269 82 289 102T320 170L323 182H435Q425 139 408 104T363 43Q341 22 312 8Q302 2 292 -4Q272 -18 252 -34T215 -71T193 -116Q192 -120 192 -127Q192 -145 203 -154T232 -163Q255 -163 282 -150T331 -123L342 -159Q306 -182 267 -200T187 -219Q152 -219 130 -202T107 -149V-138Q107 -133 109 -127Q118 -88 144 -62T205 -17Q212 -13 218 -10Q144 -10 112 24T80 118Q80 151 89 190L123 348Q132 392 149 429T193 492T255 533T340 548Q415 548 447 514T479 419Q479 388 471 348L449 248ZM357 340L363 368Q368 391 368 406Q368 456 320 456Q290 456 270 436T239 368L233 340H357Z"  />
<glyph unicode="&#x11A;" horiz-adv-x="444" d="M184 0H60L216 722H340H548L524 614H316L276 428H436L413 320H253L207 108H429L406 0H184ZM447 760H337L272 904H364L404 815L482 904H574L447 760Z"  />
<glyph unicode="&#x11B;" horiz-adv-x="444" d="M357 340L363 368Q368 391 368 406Q368 456 320 456Q290 456 270 436T239 368L233 340H357ZM449 248H213L196 170Q192 151 192 133Q192 106 204 94T239 82Q269 82 289 102T320 170L323 182H435Q425 139 408 104T364 44T302 4T219 -10Q144 -10 112 24T80 118Q80 151 89 190L123 348Q132 392 149 429T193 492T255 533T340 548Q415 548 447 514T479 419Q479 388 471 348L449 248ZM402 602H292L227 746H319L359 657L437 746H529L402 602Z"  />
<glyph unicode="&#x11C;" horiz-adv-x="500" d="M310 366H387H513L434 0H374L362 54Q327 21 297 6T223 -10Q161 -10 126 24T91 122Q91 146 97 175L178 547Q186 585 204 619T251 678T317 717T400 732Q439 732 467 721T513 691T540 645T549 588Q549 562 543 534L533 488H415Q420 513 423 532T426 566Q426 599 413 611T374 624Q351 624 332 608T301 545L221 174Q219 166 218 159T217 144Q217 123 227 111T263 98Q301 98 321 121T352 198L368 268H289L310 366ZM378 904H488L553 760H461L421 849L343 760H251L378 904Z"  />
<glyph unicode="&#x11D;" horiz-adv-x="444" d="M211 -90Q239 -90 258 -88T289 -81T307 -69T315 -50Q316 -47 316 -41Q316 -24 297 -17T228 -10Q172 -10 151 -19T125 -50Q124 -53 124 -59Q124 -75 142 -82T211 -90ZM247 230Q263 230 275 235T296 252T313 287T328 343Q333 366 335 383T338 414Q338 439 328 447T296 456Q282 456 271 451T250 434T232 399T216 343Q207 301 207 278Q207 250 217 240T247 230ZM524 455Q519 456 515 456Q511 456 506 456Q491 456 477 453T449 439V428Q449 408 447 388T442 354Q429 292 410 251T363 185T302 149T225 138H189Q180 136 172 130T162 113Q162 111 162 111T161 108Q161 93 180 89T228 83T290 81T353 71T401 45T420 -9Q420 -26 416 -42Q401 -111 335 -140T159 -170Q82 -170 40 -152T-2 -98Q-2 -94 0 -84Q6 -52 33 -30T91 0V2Q74 10 64 22T53 53Q53 57 53 61T55 70Q58 84 67 97T88 121T115 141T141 157Q118 176 107 194T96 246Q96 281 111 350Q123 405 140 443T184 504T245 538T328 548Q364 548 392 535T440 490Q455 506 466 517T489 535T513 545T544 548L524 455ZM307 746H417L482 602H390L350 691L272 602H180L307 746Z"  />
<glyph unicode="&#x11E;" horiz-adv-x="500" d="M310 366H387H513L434 0H374L362 54Q327 21 297 6T223 -10Q161 -10 126 24T91 122Q91 146 97 175L178 547Q186 585 204 619T251 678T317 717T400 732Q439 732 467 721T513 691T540 645T549 588Q549 562 543 534L533 488H415Q420 513 423 532T426 566Q426 599 413 611T374 624Q351 624 332 608T301 545L221 174Q219 166 218 159T217 144Q217 123 227 111T263 98Q301 98 321 121T352 198L368 268H289L310 366ZM584 907Q575 878 560 853T523 808T472 777T406 765Q374 765 352 774T316 798T295 833T288 878Q288 885 288 892T290 907H348Q347 903 347 899Q347 896 347 893Q347 861 366 847T421 833Q461 833 486 850T526 907H584Z"  />
<glyph unicode="&#x11F;" horiz-adv-x="444" d="M211 -90Q239 -90 258 -88T289 -81T307 -69T315 -50Q316 -47 316 -41Q316 -24 297 -17T228 -10Q172 -10 151 -19T125 -50Q124 -53 124 -59Q124 -75 142 -82T211 -90ZM247 230Q263 230 275 235T296 252T313 287T328 343Q333 366 335 383T338 414Q338 439 328 447T296 456Q282 456 271 451T250 434T232 399T216 343Q207 301 207 278Q207 250 217 240T247 230ZM524 455Q519 456 515 456Q511 456 506 456Q491 456 477 453T449 439V428Q449 408 447 388T442 354Q429 292 410 251T363 185T302 149T225 138H189Q180 136 172 130T162 113Q162 111 162 111T161 108Q161 93 180 89T228 83T290 81T353 71T401 45T420 -9Q420 -26 416 -42Q401 -111 335 -140T159 -170Q82 -170 40 -152T-2 -98Q-2 -94 0 -84Q6 -52 33 -30T91 0V2Q74 10 64 22T53 53Q53 57 53 61T55 70Q58 84 67 97T88 121T115 141T141 157Q118 176 107 194T96 246Q96 281 111 350Q123 405 140 443T184 504T245 538T328 548Q364 548 392 535T440 490Q455 506 466 517T489 535T513 545T544 548L524 455ZM508 749Q499 720 484 695T447 650T396 619T330 607Q298 607 276 616T240 640T219 675T212 720Q212 727 212 734T214 749H272Q271 745 271 741Q271 738 271 735Q271 703 290 689T345 675Q385 675 410 692T450 749H508Z"  />
<glyph unicode="&#x120;" horiz-adv-x="500" d="M310 366H387H513L434 0H374L362 54Q327 21 297 6T223 -10Q161 -10 126 24T91 122Q91 146 97 175L178 547Q186 585 204 619T251 678T317 717T400 732Q439 732 467 721T513 691T540 645T549 588Q549 562 543 534L533 488H415Q420 513 423 532T426 566Q426 599 413 611T374 624Q351 624 332 608T301 545L221 174Q219 166 218 159T217 144Q217 123 227 111T263 98Q301 98 321 121T352 198L368 268H289L310 366ZM481 880L457 772H349L373 880H481Z"  />
<glyph unicode="&#x121;" horiz-adv-x="444" d="M211 -90Q239 -90 258 -88T289 -81T307 -69T315 -50Q316 -47 316 -41Q316 -24 297 -17T228 -10Q172 -10 151 -19T125 -50Q124 -53 124 -59Q124 -75 142 -82T211 -90ZM247 230Q263 230 275 235T296 252T313 287T328 343Q333 366 335 383T338 414Q338 439 328 447T296 456Q282 456 271 451T250 434T232 399T216 343Q207 301 207 278Q207 250 217 240T247 230ZM524 455Q519 456 515 456Q511 456 506 456Q491 456 477 453T449 439V428Q449 408 447 388T442 354Q429 292 410 251T363 185T302 149T225 138H189Q180 136 172 130T162 113Q162 111 162 111T161 108Q161 93 180 89T228 83T290 81T353 71T401 45T420 -9Q420 -26 416 -42Q401 -111 335 -140T159 -170Q82 -170 40 -152T-2 -98Q-2 -94 0 -84Q6 -52 33 -30T91 0V2Q74 10 64 22T53 53Q53 57 53 61T55 70Q58 84 67 97T88 121T115 141T141 157Q118 176 107 194T96 246Q96 281 111 350Q123 405 140 443T184 504T245 538T328 548Q364 548 392 535T440 490Q455 506 466 517T489 535T513 545T544 548L524 455ZM407 722L383 614H275L299 722H407Z"  />
<glyph unicode="&#x122;" horiz-adv-x="500" d="M310 366H387H513L434 0H374L362 54Q327 21 297 6T223 -10Q161 -10 126 24T91 122Q91 146 97 175L178 547Q186 585 204 619T251 678T317 717T400 732Q439 732 467 721T513 691T540 645T549 588Q549 562 543 534L533 488H415Q420 513 423 532T426 566Q426 599 413 611T374 624Q351 624 332 608T301 545L221 174Q219 166 218 159T217 144Q217 123 227 111T263 98Q301 98 321 121T352 198L368 268H289L310 366ZM212 -146H171L192 -50H285L265 -144L212 -228H166L212 -146Z"  />
<glyph unicode="&#x123;" horiz-adv-x="444" d="M211 -90Q239 -90 258 -88T289 -81T307 -69T315 -50Q316 -47 316 -41Q316 -24 297 -17T228 -10Q172 -10 151 -19T125 -50Q124 -53 124 -59Q124 -75 142 -82T211 -90ZM247 230Q263 230 275 235T296 252T313 287T328 343Q333 366 335 383T338 414Q338 439 328 447T296 456Q282 456 271 451T250 434T232 399T216 343Q207 301 207 278Q207 250 217 240T247 230ZM524 455Q519 456 515 456Q511 456 506 456Q491 456 477 453T449 439V428Q449 408 447 388T442 354Q429 292 410 251T363 185T302 149T225 138H189Q180 136 172 130T162 113Q162 111 162 111T161 108Q161 93 180 89T228 83T290 81T353 71T401 45T420 -9Q420 -26 416 -42Q401 -111 335 -140T159 -170Q82 -170 40 -152T-2 -98Q-2 -94 0 -84Q6 -52 33 -30T91 0V2Q74 10 64 22T53 53Q53 57 53 61T55 70Q58 84 67 97T88 121T115 141T141 157Q118 176 107 194T96 246Q96 281 111 350Q123 405 140 443T184 504T245 538T328 548Q364 548 392 535T440 490Q455 506 466 517T489 535T513 545T544 548L524 455ZM344 673H381L363 589H278L296 672L343 746H385L344 673Z"  />
<glyph unicode="&#x124;" horiz-adv-x="500" d="M60 0L216 722H340L276 428H408L472 722H596L440 0H316L385 320H253L184 0H60ZM387 904H497L562 760H470L430 849L352 760H260L387 904Z"  />
<glyph unicode="&#x125;" horiz-adv-x="444" d="M54 0L210 722H322L271 488Q289 501 304 512T336 531T371 543T414 548Q450 548 469 528T488 471Q488 452 484 435L390 0H278L368 417Q369 420 369 423Q369 427 369 429Q369 443 360 449T336 456Q318 456 299 446T257 422L166 0H54ZM351 903H461L526 759H434L394 848L316 759H224L351 903Z"  />
<glyph unicode="&#x126;" horiz-adv-x="500" d="M60 0L216 722H340L311 591H443L472 722H596L440 0H316L373 268H241L184 0H60ZM262 370H394L425 505H293L262 370Z"  />
<glyph unicode="&#x127;" horiz-adv-x="444" d="M54 0L181 589H129L145 667H198L210 722H322L310 667H422L406 589H293L271 488Q289 501 304 512T336 531T371 543T414 548Q450 548 469 528T488 471Q488 452 484 435L390 0H278L368 417Q369 420 369 423V429Q369 443 360 449T336 456Q318 456 299 446T257 422L166 0H54Z"  />
<glyph unicode="&#x128;" horiz-adv-x="278" d="M77 0L233 722H357L201 0H77ZM489 891Q480 870 469 849T442 811T406 784T361 773Q343 773 329 779T300 793Q286 801 273 806T244 812Q221 812 210 801T193 768H137Q146 789 157 810T184 848T220 875T265 886Q283 886 297 880T326 867Q340 860 353 854T382 847Q405 847 416 858T433 891H489Z"  />
<glyph unicode="&#x129;" horiz-adv-x="222" d="M55 0L171 538H283L167 0H55ZM430 733Q421 712 410 691T383 653T347 626T302 615Q284 615 270 621T241 635Q227 643 214 648T185 654Q162 654 151 643T134 610H78Q87 631 98 652T125 690T161 717T206 728Q224 728 238 722T267 709Q281 702 294 696T323 689Q346 689 357 700T374 733H430Z"  />
<glyph unicode="&#x12A;" horiz-adv-x="278" d="M77 0L233 722H357L201 0H77ZM170 859H464L450 795H156L170 859Z"  />
<glyph unicode="&#x12B;" horiz-adv-x="222" d="M55 0L171 538H283L167 0H55ZM112 701H406L392 637H98L112 701Z"  />
<glyph unicode="&#x12E;" horiz-adv-x="278" d="M77 0L233 722H357L201 0H182Q172 -4 153 -16T116 -45T83 -83T69 -128Q69 -145 81 -154T110 -163Q133 -163 158 -151T205 -126L216 -162Q179 -186 143 -202T67 -219Q31 -219 8 -201T-15 -150Q-15 -119 -2 -95T32 -53T76 -22T123 0H77Z"  />
<glyph unicode="&#x12F;" horiz-adv-x="222" d="M55 0L171 538H283L167 0H154Q144 -4 125 -16T88 -45T55 -83T41 -128Q41 -145 53 -154T82 -163Q105 -163 130 -151T177 -126L188 -162Q151 -186 115 -202T39 -219Q4 -219 -19 -201T-43 -149Q-43 -119 -30 -95T4 -53T48 -22T95 0H55ZM189 620L211 722H323L301 620H189Z"  />
<glyph unicode="&#x130;" horiz-adv-x="278" d="M77 0L233 722H357L201 0H77ZM383 880L359 772H251L275 880H383Z"  />
<glyph unicode="&#x131;" horiz-adv-x="222" d="M55 0L171 538H283L167 0H55Z"  />
<glyph unicode="&#x132;" horiz-adv-x="544" d="M77 0L233 722H357L201 0H77ZM290 98H316Q352 98 369 113T394 158L516 722H640L515 144Q507 109 493 81T455 33T395 1T307 -10H266L290 98Z"  />
<glyph unicode="&#x133;" horiz-adv-x="436" d="M189 620L211 722H323L301 620H189ZM55 0L171 538H283L167 0H55ZM409 620L431 722H543L521 620H409ZM200 -68H218Q241 -68 253 -56T269 -26L391 537H503L380 -31Q371 -71 355 -98T318 -141T271 -163T220 -170H178L200 -68Z"  />
<glyph unicode="&#x134;" horiz-adv-x="278" d="M24 98H50Q86 98 103 113T128 158L250 722H374L249 144Q241 109 227 81T189 33T129 1T41 -10H0L24 98ZM286 904H396L461 760H369L329 849L251 760H159L286 904Z"  />
<glyph unicode="&#x135;" horiz-adv-x="222" d="M-14 -68H4Q27 -68 39 -56T55 -26L177 537H289L166 -31Q157 -71 141 -98T104 -141T57 -163T6 -170H-36L-14 -68ZM215 746H325L390 602H298L258 691L180 602H88L215 746Z"  />
<glyph unicode="&#x136;" horiz-adv-x="444" d="M54 0L210 722H334L276 455H278L466 722H590L398 453L451 0H325L296 336H294L233 256L178 0H54ZM207 -146H166L187 -50H280L260 -144L207 -228H161L207 -146Z"  />
<glyph unicode="&#x137;" horiz-adv-x="444" d="M373 368L424 0H311L278 267H276L206 188L166 0H54L210 722H322L241 348H243L407 538H527L373 368ZM197 -146H156L177 -50H270L250 -144L197 -228H151L197 -146Z"  />
<glyph unicode="&#x139;" horiz-adv-x="389" d="M177 0H54L210 722H334L201 108H396L373 0H177ZM310 760H227L337 904H472L310 760Z"  />
<glyph unicode="&#x13A;" horiz-adv-x="222" d="M55 0L211 722H323L167 0H55ZM282 759H199L309 903H444L282 759Z"  />
<glyph unicode="&#x13B;" horiz-adv-x="389" d="M177 0H54L210 722H334L201 108H396L373 0H177ZM174 -146H133L154 -50H247L227 -144L174 -228H128L174 -146Z"  />
<glyph unicode="&#x13C;" horiz-adv-x="222" d="M55 0L211 722H323L167 0H55ZM75 -146H34L55 -50H148L128 -144L75 -228H29L75 -146Z"  />
<glyph unicode="&#x13D;" horiz-adv-x="389" d="M177 0H54L210 722H334L201 108H396L373 0H177ZM396 629H358L378 722H464L445 631L391 544H350L396 629Z"  />
<glyph unicode="&#x13E;" horiz-adv-x="222" d="M55 0L211 722H323L167 0H55ZM374 629H336L356 722H442L423 631L369 544H328L374 629Z"  />
<glyph unicode="&#x13F;" horiz-adv-x="389" d="M177 0H54L210 722H334L201 108H396L373 0H177ZM431 421L407 313H299L323 421H431Z"  />
<glyph unicode="&#x140;" horiz-adv-x="379" d="M55 0L211 722H323L167 0H55ZM437 421L413 313H305L329 421H437Z"  />
<glyph unicode="&#x141;" horiz-adv-x="389" d="M201 108H396L373 0H177H54L116 290L58 268L75 350L134 372L210 722H334L269 421L395 468L377 386L251 339L201 108Z"  />
<glyph unicode="&#x142;" horiz-adv-x="222" d="M167 0H55L127 333L49 297L65 371L143 407L211 722H323L267 464L345 500L329 426L251 390L167 0Z"  />
<glyph unicode="&#x143;" horiz-adv-x="500" d="M60 0L216 722H331L392 309H394L484 722H596L440 0H332L271 451H269L172 0H60ZM433 760H350L460 904H595L433 760Z"  />
<glyph unicode="&#x144;" horiz-adv-x="444" d="M54 0L170 538H276L264 484Q285 499 302 511T335 531T371 543T414 548Q450 548 469 528T488 471Q488 452 484 435L390 0H278L368 417Q369 420 369 423Q369 427 369 429Q369 443 360 449T336 456Q318 456 299 446T257 422L166 0H54ZM370 602H287L397 746H532L370 602Z"  />
<glyph unicode="&#x145;" horiz-adv-x="500" d="M60 0L216 722H331L392 309H394L484 722H596L440 0H332L271 451H269L172 0H60ZM218 -146H177L198 -50H291L271 -144L218 -228H172L218 -146Z"  />
<glyph unicode="&#x146;" horiz-adv-x="444" d="M54 0L170 538H276L264 484Q285 499 302 511T335 531T371 543T414 548Q450 548 469 528T488 471Q488 452 484 435L390 0H278L368 417Q369 420 369 423Q369 427 369 429Q369 443 360 449T336 456Q318 456 299 446T257 422L166 0H54ZM186 -146H145L166 -50H259L239 -144L186 -228H140L186 -146Z"  />
<glyph unicode="&#x147;" horiz-adv-x="500" d="M60 0L216 722H331L392 309H394L484 722H596L440 0H332L271 451H269L172 0H60ZM464 760H354L289 904H381L421 815L499 904H591L464 760Z"  />
<glyph unicode="&#x148;" horiz-adv-x="444" d="M54 0L170 538H276L264 484Q285 499 302 511T335 531T371 543T414 548Q450 548 469 528T488 471Q488 452 484 435L390 0H278L368 417Q369 420 369 423Q369 427 369 429Q369 443 360 449T336 456Q318 456 299 446T257 422L166 0H54ZM402 602H292L227 746H319L359 657L437 746H529L402 602Z"  />
<glyph unicode="&#x149;" horiz-adv-x="529" d="M139 0L255 538H361L349 484Q370 499 387 511T420 531T456 543T499 548Q535 548 554 528T573 471Q573 452 569 435L475 0H363L453 417Q454 420 454 423Q454 427 454 429Q454 443 445 449T421 456Q403 456 384 446T342 422L251 0H139ZM246 604L150 480H97L173 604H128L154 722H272L246 604Z"  />
<glyph unicode="&#x14C;" horiz-adv-x="500" d="M222 178Q218 161 218 144Q218 121 230 110T271 98Q309 98 327 117T354 178L433 544Q438 566 438 579Q438 602 426 613T385 624Q347 624 329 605T301 544L222 178ZM178 547Q186 585 205 619T252 678T320 717T408 732Q489 732 526 694T564 596Q564 572 558 547L477 175Q469 137 450 103T403 44T335 5T247 -10Q166 -10 129 28T91 126Q91 149 97 175L178 547ZM282 859H576L562 795H268L282 859Z"  />
<glyph unicode="&#x14D;" horiz-adv-x="444" d="M363 368Q368 391 368 406Q368 456 320 456Q290 456 270 436T239 368L196 170Q192 151 192 133Q192 106 204 94T239 82Q269 82 289 102T320 170L363 368ZM123 348Q132 392 149 429T193 492T255 533T340 548Q415 548 447 514T479 419Q479 388 471 348L437 190Q427 146 410 109T367 46T304 5T219 -10Q144 -10 112 24T80 118Q80 151 89 190L123 348ZM217 701H511L497 637H203L217 701Z"  />
<glyph unicode="&#x14E;" horiz-adv-x="500" d="M222 178Q218 161 218 144Q218 121 230 110T271 98Q309 98 327 117T354 178L433 544Q438 566 438 579Q438 602 426 613T385 624Q347 624 329 605T301 544L222 178ZM178 547Q186 585 205 619T252 678T320 717T408 732Q489 732 526 694T564 596Q564 572 558 547L477 175Q469 137 450 103T403 44T335 5T247 -10Q166 -10 129 28T91 126Q91 149 97 175L178 547ZM586 907Q577 878 562 853T525 808T474 777T408 765Q376 765 354 774T318 798T297 833T290 878Q290 885 290 892T292 907H350Q349 903 349 899Q349 896 349 893Q349 861 368 847T423 833Q463 833 488 850T528 907H586Z"  />
<glyph unicode="&#x14F;" horiz-adv-x="444" d="M363 368Q368 391 368 406Q368 456 320 456Q290 456 270 436T239 368L196 170Q192 151 192 133Q192 106 204 94T239 82Q269 82 289 102T320 170L363 368ZM123 348Q132 392 149 429T193 492T255 533T340 548Q415 548 447 514T479 419Q479 388 471 348L437 190Q427 146 410 109T367 46T304 5T219 -10Q144 -10 112 24T80 118Q80 151 89 190L123 348ZM524 749Q515 720 500 695T463 650T412 619T346 607Q314 607 292 616T256 640T235 675T228 720Q228 727 228 734T230 749H288Q287 745 287 741Q287 738 287 735Q287 703 306 689T361 675Q401 675 426 692T466 749H524Z"  />
<glyph unicode="&#x150;" horiz-adv-x="500" d="M222 178Q218 161 218 144Q218 121 230 110T271 98Q309 98 327 117T354 178L433 544Q438 566 438 579Q438 602 426 613T385 624Q347 624 329 605T301 544L222 178ZM178 547Q186 585 205 619T252 678T320 717T408 732Q489 732 526 694T564 596Q564 572 558 547L477 175Q469 137 450 103T403 44T335 5T247 -10Q166 -10 129 28T91 126Q91 149 97 175L178 547ZM343 760H264L364 904H499L343 760ZM513 760H430L540 904H675L513 760Z"  />
<glyph unicode="&#x151;" horiz-adv-x="444" d="M363 368Q368 391 368 406Q368 456 320 456Q290 456 270 436T239 368L196 170Q192 151 192 133Q192 106 204 94T239 82Q269 82 289 102T320 170L363 368ZM123 348Q132 392 149 429T193 492T255 533T340 548Q415 548 447 514T479 419Q479 388 471 348L437 190Q427 146 410 109T367 46T304 5T219 -10Q144 -10 112 24T80 118Q80 151 89 190L123 348ZM274 602H195L295 746H430L274 602ZM444 602H361L471 746H606L444 602Z"  />
<glyph unicode="&#x152;" horiz-adv-x="722" d="M446 540Q449 555 449 566Q449 592 435 603T394 615Q352 615 329 589T296 520L228 205Q224 189 224 170Q224 142 238 126T284 110Q315 110 338 127T370 185L446 540ZM452 0H329H270Q185 0 142 38T99 150Q99 166 100 183T107 220L168 502Q191 609 256 665T426 722H486H609H826L802 614H586L546 428H714L691 320H523L477 108H707L684 0H452Z"  />
<glyph unicode="&#x153;" horiz-adv-x="667" d="M580 340L586 368Q591 391 591 406Q591 456 543 456Q513 456 497 436T469 368L463 340H580ZM357 368Q359 379 360 388T362 406Q362 432 351 444T320 456Q290 456 270 436T239 368L196 170Q192 151 192 133Q192 106 204 94T239 82Q265 82 284 102T314 170L357 368ZM443 248L426 170Q420 144 420 126Q420 82 462 82Q492 82 512 102T543 170L546 182H658Q648 139 631 104T588 44T530 4T454 -10Q408 -10 383 6T347 52Q324 23 291 7T207 -10Q139 -10 110 24T80 116Q80 149 89 190L123 348Q132 392 149 429T191 492T250 533T328 548Q380 548 407 533T443 487Q492 548 575 548Q643 548 672 514T702 420Q702 403 700 386T694 348L672 248H443Z"  />
<glyph unicode="&#x154;" horiz-adv-x="500" d="M270 398H314Q339 398 357 403T390 421T413 455T430 509Q436 539 436 560Q436 594 418 607T362 620H318L270 398ZM184 0H60L216 722H337H390Q476 722 519 690T563 584Q563 551 554 509Q545 465 531 434T499 382T463 347T427 327L462 0H336L312 299Q300 297 283 297T248 296L184 0ZM405 760H322L432 904H567L405 760Z"  />
<glyph unicode="&#x155;" horiz-adv-x="333" d="M54 0L170 538H277L263 475H265Q293 510 330 529T408 548H431L406 431Q392 435 377 438T336 442Q307 442 281 424T246 370L166 0H54ZM332 602H249L359 746H494L332 602Z"  />
<glyph unicode="&#x156;" horiz-adv-x="500" d="M270 398H314Q339 398 357 403T390 421T413 455T430 509Q436 539 436 560Q436 594 418 607T362 620H318L270 398ZM184 0H60L216 722H337H390Q476 722 519 690T563 584Q563 551 554 509Q545 465 531 434T499 382T463 347T427 327L462 0H336L312 299Q300 297 283 297T248 296L184 0ZM214 -146H173L194 -50H287L267 -144L214 -228H168L214 -146Z"  />
<glyph unicode="&#x157;" horiz-adv-x="333" d="M54 0L170 538H277L263 475H265Q293 510 330 529T408 548H431L406 431Q392 435 377 438T336 442Q307 442 281 424T246 370L166 0H54ZM75 -146H34L55 -50H148L128 -144L75 -228H29L75 -146Z"  />
<glyph unicode="&#x158;" horiz-adv-x="500" d="M270 398H314Q339 398 357 403T390 421T413 455T430 509Q436 539 436 560Q436 594 418 607T362 620H318L270 398ZM184 0H60L216 722H337H390Q476 722 519 690T563 584Q563 551 554 509Q545 465 531 434T499 382T463 347T427 327L462 0H336L312 299Q300 297 283 297T248 296L184 0ZM447 760H337L272 904H364L404 815L482 904H574L447 760Z"  />
<glyph unicode="&#x159;" horiz-adv-x="333" d="M54 0L170 538H277L263 475H265Q293 510 330 529T408 548H431L406 431Q392 435 377 438T336 442Q307 442 281 424T246 370L166 0H54ZM366 602H256L191 746H283L323 657L401 746H493L366 602Z"  />
<glyph unicode="&#x15A;" horiz-adv-x="444" d="M403 544Q404 550 404 555T405 565Q405 599 389 611T355 624Q325 624 305 606T277 553Q276 548 276 544T275 534Q275 509 288 487T321 442T363 396T406 347T439 290T452 221Q452 210 451 199T447 175Q438 130 416 96T363 38T293 2T211 -10Q174 -10 147 2T101 34T74 83T65 144Q65 155 66 166T69 190L190 207Q188 198 188 190Q188 182 188 174Q188 136 202 117T241 98Q273 98 296 115T327 164Q330 177 330 189Q330 217 317 240T284 286T242 330T199 378T166 434T153 503Q153 525 159 552Q178 639 238 685T390 732Q459 732 492 692T526 587Q526 579 526 572T524 557L403 544ZM398 760H315L425 904H560L398 760Z"  />
<glyph unicode="&#x15B;" horiz-adv-x="389" d="M342 389V393Q342 456 292 456Q270 456 255 445T234 413Q233 409 233 402Q233 376 257 354T310 307T364 249T388 170Q388 151 384 135Q368 63 316 27T195 -10Q124 -10 91 26T57 128V140L161 167Q161 162 161 159T160 151Q160 122 171 102T216 82Q238 82 254 94T276 129Q277 133 277 136T278 142Q278 161 267 177T238 210T201 243T163 279T135 321T123 373Q123 387 126 404Q133 436 150 462T191 508T245 537T307 548Q373 548 406 510T440 408V405L342 389ZM343 602H260L370 746H505L343 602Z"  />
<glyph unicode="&#x15C;" horiz-adv-x="444" d="M403 544Q404 550 404 555T405 565Q405 599 389 611T355 624Q325 624 305 606T277 553Q276 548 276 544T275 534Q275 509 288 487T321 442T363 396T406 347T439 290T452 221Q452 210 451 199T447 175Q438 130 416 96T363 38T293 2T211 -10Q174 -10 147 2T101 34T74 83T65 144Q65 155 66 166T69 190L190 207Q188 198 188 190Q188 182 188 174Q188 136 202 117T241 98Q273 98 296 115T327 164Q330 177 330 189Q330 217 317 240T284 286T242 330T199 378T166 434T153 503Q153 525 159 552Q178 639 238 685T390 732Q459 732 492 692T526 587Q526 579 526 572T524 557L403 544ZM358 904H468L533 760H441L401 849L323 760H231L358 904Z"  />
<glyph unicode="&#x15D;" horiz-adv-x="389" d="M342 389V393Q342 456 292 456Q270 456 255 445T234 413Q233 409 233 402Q233 376 257 354T310 307T364 249T388 170Q388 151 384 135Q368 63 316 27T195 -10Q124 -10 91 26T57 128V140L161 167Q161 162 161 159T160 151Q160 122 171 102T216 82Q238 82 254 94T276 129Q277 133 277 136T278 142Q278 161 267 177T238 210T201 243T163 279T135 321T123 373Q123 387 126 404Q133 436 150 462T191 508T245 537T307 548Q373 548 406 510T440 408V405L342 389ZM294 746H404L469 602H377L337 691L259 602H167L294 746Z"  />
<glyph unicode="&#x15E;" horiz-adv-x="444" d="M90 -163Q101 -169 119 -174T151 -180Q177 -180 195 -168T218 -139Q219 -136 219 -131Q219 -116 207 -110T179 -103Q159 -103 142 -110L124 -92L202 -10Q171 -8 146 2Q119 14 101 34T74 83T65 144Q65 155 66 166T69 190L190 207Q188 198 188 190V174Q188 136 202 117T241 98Q273 98 296 115T327 164Q330 177 330 189Q330 217 317 240T284 286T242 330T199 378T166 434T153 503Q153 525 159 552Q178 639 238 685T390 732Q459 732 492 692T526 587Q526 579 526 572T524 557L403 544Q404 550 404 555T405 565Q405 599 389 611T355 624Q325 624 305 606T277 553Q276 548 276 544T275 534Q275 509 288 487T321 442T363 396T406 347T439 290T452 221Q452 210 451 199T447 175Q438 130 416 96T363 38T293 2Q274 -4 253 -7L206 -60Q211 -59 216 -59T227 -58Q256 -60 279 -74T303 -118Q303 -122 303 -125T301 -134Q296 -158 282 -177T247 -209T203 -229T155 -236Q120 -236 97 -227T62 -213L90 -163Z"  />
<glyph unicode="&#x15F;" horiz-adv-x="389" d="M65 -163Q76 -169 94 -174T126 -180Q152 -180 170 -168T193 -139Q194 -136 194 -131Q194 -116 182 -110T154 -103Q134 -103 117 -110L99 -92L178 -9Q120 -5 90 26Q57 62 57 128V140L161 167Q161 162 161 159T160 151Q160 122 171 102T216 82Q238 82 254 94T276 129Q277 133 277 136T278 142Q278 161 267 177T238 210T201 243T163 279T135 321T123 373Q123 387 126 404Q133 436 150 462T191 508T245 537T307 548Q373 548 406 510T440 408V405L342 389V393Q342 456 292 456Q270 456 255 445T234 413Q233 409 233 402Q233 376 257 354T310 307T364 249T388 170Q388 151 384 135Q368 63 316 26Q277 -1 228 -8L181 -60Q186 -59 191 -59T202 -58Q231 -60 254 -74T278 -118Q278 -122 278 -125T276 -134Q271 -158 257 -177T222 -209T178 -229T130 -236Q95 -236 72 -227T37 -213L65 -163Z"  />
<glyph unicode="&#x160;" horiz-adv-x="444" d="M403 544Q404 550 404 555T405 565Q405 599 389 611T355 624Q325 624 305 606T277 553Q276 548 276 544T275 534Q275 509 288 487T321 442T363 396T406 347T439 290T452 221Q452 210 451 199T447 175Q438 130 416 96T363 38T293 2T211 -10Q174 -10 147 2T101 34T74 83T65 144Q65 155 66 166T69 190L190 207Q188 198 188 190Q188 182 188 174Q188 136 202 117T241 98Q273 98 296 115T327 164Q330 177 330 189Q330 217 317 240T284 286T242 330T199 378T166 434T153 503Q153 525 159 552Q178 639 238 685T390 732Q459 732 492 692T526 587Q526 579 526 572T524 557L403 544ZM441 760H331L266 904H358L398 815L476 904H568L441 760Z"  />
<glyph unicode="&#x161;" horiz-adv-x="389" d="M342 389V393Q342 456 292 456Q270 456 255 445T234 413Q233 409 233 402Q233 376 257 354T310 307T364 249T388 170Q388 151 384 135Q368 63 316 27T195 -10Q124 -10 91 26T57 128V140L161 167Q161 162 161 159T160 151Q160 122 171 102T216 82Q238 82 254 94T276 129Q277 133 277 136T278 142Q278 161 267 177T238 210T201 243T163 279T135 321T123 373Q123 387 126 404Q133 436 150 462T191 508T245 537T307 548Q373 548 406 510T440 408V405L342 389ZM380 602H270L205 746H297L337 657L415 746H507L380 602Z"  />
<glyph unicode="&#x162;" horiz-adv-x="389" d="M264 614H144L168 722H287H410H532L508 614H388L256 0H132L264 614ZM160 -146H119L140 -50H233L213 -144L160 -228H114L160 -146Z"  />
<glyph unicode="&#x163;" horiz-adv-x="278" d="M106 446L126 538H188L219 683H331L300 538H375L355 446H280L213 136Q212 131 212 128T211 120Q211 92 241 92H278L258 -4Q246 -7 234 -8T200 -10Q147 -10 120 10T92 74Q92 82 93 91T96 111L168 446H106ZM125 -146H84L105 -50H198L178 -144L125 -228H79L125 -146Z"  />
<glyph unicode="&#x164;" horiz-adv-x="389" d="M264 614H144L168 722H287H410H532L508 614H388L256 0H132L264 614ZM406 760H296L231 904H323L363 815L441 904H533L406 760Z"  />
<glyph unicode="&#x165;" horiz-adv-x="278" d="M389 644H354L371 722H452L436 645L389 571H348L389 644ZM106 446L126 538H188L219 683H331L300 538H375L355 446H280L213 136Q212 131 212 128T211 120Q211 92 241 92H278L258 -4Q246 -7 234 -8T200 -10Q147 -10 120 10T92 74Q92 82 93 91T96 111L168 446H106Z"  />
<glyph unicode="&#x166;" horiz-adv-x="389" d="M264 614H144L167 722H531L508 614H388L358 478H452L430 372H336L256 0H132L212 372H120L142 478H234L264 614Z"  />
<glyph unicode="&#x167;" horiz-adv-x="278" d="M106 446L126 538H188L219 683H331L300 538H375L355 446H280L261 358H325L307 275H243L213 136Q212 131 212 128T211 120Q211 92 241 92H278L258 -4Q246 -7 234 -8T200 -10Q147 -10 120 10T92 74Q92 82 93 91T96 111L131 275H78L96 358H149L168 446H106Z"  />
<glyph unicode="&#x168;" horiz-adv-x="500" d="M216 722H340L222 177Q218 162 218 147Q218 98 271 98Q336 98 354 177L472 722H596L479 182Q459 88 398 39T247 -10Q172 -10 132 24T92 125Q92 138 94 152T99 182L216 722ZM601 891Q592 870 581 849T554 811T518 784T473 773Q455 773 441 779T412 793Q398 801 385 806T356 812Q333 812 322 801T305 768H249Q258 789 269 810T296 848T332 875T377 886Q395 886 409 880T438 867Q452 860 465 854T494 847Q517 847 528 858T545 891H601Z"  />
<glyph unicode="&#x169;" horiz-adv-x="444" d="M506 538L390 0H284L295 54Q274 39 258 27T224 7T188 -5T145 -10Q109 -10 91 10T72 66Q72 74 73 83T76 103L170 538H282L192 121Q191 117 191 109Q191 82 223 82Q241 82 260 92T303 116L394 538H506ZM541 733Q532 712 521 691T494 653T458 626T413 615Q395 615 381 621T352 635Q338 643 325 648T296 654Q273 654 262 643T245 610H189Q198 631 209 652T236 690T272 717T317 728Q335 728 349 722T378 709Q392 702 405 696T434 689Q457 689 468 700T485 733H541Z"  />
<glyph unicode="&#x16A;" horiz-adv-x="500" d="M216 722H340L222 177Q218 162 218 147Q218 98 271 98Q336 98 354 177L472 722H596L479 182Q459 88 398 39T247 -10Q172 -10 132 24T92 125Q92 138 94 152T99 182L216 722ZM282 859H576L562 795H268L282 859Z"  />
<glyph unicode="&#x16B;" horiz-adv-x="444" d="M506 538L390 0H284L295 54Q274 39 258 27T224 7T188 -5T145 -10Q109 -10 91 10T72 66Q72 74 73 83T76 103L170 538H282L192 121Q191 117 191 109Q191 82 223 82Q241 82 260 92T303 116L394 538H506ZM223 701H517L503 637H209L223 701Z"  />
<glyph unicode="&#x16C;" horiz-adv-x="500" d="M216 722H340L222 177Q218 162 218 147Q218 98 271 98Q336 98 354 177L472 722H596L479 182Q459 88 398 39T247 -10Q172 -10 132 24T92 125Q92 138 94 152T99 182L216 722ZM589 907Q580 878 565 853T528 808T477 777T411 765Q379 765 357 774T321 798T300 833T293 878Q293 885 293 892T295 907H353Q352 903 352 899Q352 896 352 893Q352 861 371 847T426 833Q466 833 491 850T531 907H589Z"  />
<glyph unicode="&#x16D;" horiz-adv-x="444" d="M506 538L390 0H284L295 54Q274 39 258 27T224 7T188 -5T145 -10Q109 -10 91 10T72 66Q72 74 73 83T76 103L170 538H282L192 121Q191 117 191 109Q191 82 223 82Q241 82 260 92T303 116L394 538H506ZM524 749Q515 720 500 695T463 650T412 619T346 607Q314 607 292 616T256 640T235 675T228 720Q228 727 228 734T230 749H288Q287 745 287 741Q287 738 287 735Q287 703 306 689T361 675Q401 675 426 692T466 749H524Z"  />
<glyph unicode="&#x16E;" horiz-adv-x="500" d="M216 722H340L222 177Q218 162 218 147Q218 98 271 98Q336 98 354 177L472 722H596L479 182Q459 88 398 39T247 -10Q172 -10 132 24T92 125Q92 138 94 152T99 182L216 722ZM380 862Q379 858 379 851Q379 833 390 822T421 810Q443 810 461 825T484 862Q485 866 485 873Q485 891 474 902T443 914Q421 914 403 899T380 862ZM330 862Q334 883 346 901T375 934T412 956T454 964Q491 964 513 941T536 883Q536 878 536 872Q536 867 534 862Q529 841 517 823T489 790T452 768T410 760Q373 760 351 783T328 841Q328 846 328 851Q328 857 330 862Z"  />
<glyph unicode="&#x16F;" horiz-adv-x="444" d="M506 538L390 0H284L295 54Q274 39 258 27T224 7T188 -5T145 -10Q109 -10 91 10T72 66Q72 74 73 83T76 103L170 538H282L192 121Q191 117 191 109Q191 82 223 82Q241 82 260 92T303 116L394 538H506ZM313 704Q312 700 312 693Q312 675 323 664T354 652Q376 652 394 667T417 704Q418 708 418 715Q418 733 407 744T376 756Q354 756 336 741T313 704ZM263 704Q267 725 279 743T308 776T345 798T387 806Q424 806 446 783T469 725Q469 720 469 714Q469 709 467 704Q462 683 450 665T422 632T385 610T343 602Q306 602 284 625T261 683Q261 688 261 693Q261 699 263 704Z"  />
<glyph unicode="&#x170;" horiz-adv-x="500" d="M216 722H340L222 177Q218 162 218 147Q218 98 271 98Q336 98 354 177L472 722H596L479 182Q459 88 398 39T247 -10Q172 -10 132 24T92 125Q92 138 94 152T99 182L216 722ZM344 760H265L365 904H500L344 760ZM514 760H431L541 904H676L514 760Z"  />
<glyph unicode="&#x171;" horiz-adv-x="444" d="M506 538L390 0H284L295 54Q274 39 258 27T224 7T188 -5T145 -10Q109 -10 91 10T72 66Q72 74 73 83T76 103L170 538H282L192 121Q191 117 191 109Q191 82 223 82Q241 82 260 92T303 116L394 538H506ZM278 602H199L299 746H434L278 602ZM448 602H365L475 746H610L448 602Z"  />
<glyph unicode="&#x172;" horiz-adv-x="500" d="M216 722H340L222 177Q218 162 218 147Q218 98 271 98Q336 98 354 177L472 722H596L479 182Q459 88 397 39Q370 17 338 5Q328 0 316 -5Q291 -17 268 -33T226 -70T202 -116Q201 -120 201 -127Q201 -145 212 -154T241 -163Q264 -163 291 -150T340 -123L351 -159Q315 -182 276 -200T196 -219Q161 -219 139 -202T116 -149V-138Q116 -133 118 -127Q127 -88 155 -61T221 -15Q227 -12 233 -10Q168 -6 132 24Q92 59 92 125Q92 138 94 152T99 182L216 722Z"  />
<glyph unicode="&#x173;" horiz-adv-x="444" d="M506 538L390 0H357Q348 -4 327 -15Q306 -27 284 -44T246 -82T229 -128Q229 -145 241 -154T270 -163Q293 -163 318 -151T364 -125L375 -161Q338 -184 302 -201T225 -219Q189 -219 167 -202T144 -150Q144 -117 158 -93T196 -50T248 -19Q267 -10 287 0L298 55Q274 39 258 27T224 7T188 -5T145 -10Q109 -10 91 10T72 66Q72 74 73 83T76 103L170 538H282L192 121Q191 117 191 109Q191 82 223 82Q241 82 260 92T303 116L394 538H506Z"  />
<glyph unicode="&#x174;" horiz-adv-x="667" d="M431 722H533L517 262H519L688 722H804L521 0H417L430 477H428L241 0H137L156 722H272L248 262H250L431 722ZM461 904H571L636 760H544L504 849L426 760H334L461 904Z"  />
<glyph unicode="&#x175;" horiz-adv-x="556" d="M352 537H435L422 202H424L558 538H666L426 0H336L348 340H346L200 0H110L122 538H230L206 202H208L352 537ZM378 746H488L553 602H461L421 691L343 602H251L378 746Z"  />
<glyph unicode="&#x176;" horiz-adv-x="444" d="M284 0H160L224 300L166 722H292L319 447H321L464 722H590L348 300L284 0ZM356 904H466L531 760H439L399 849L321 760H229L356 904Z"  />
<glyph unicode="&#x177;" horiz-adv-x="389" d="M382 538H495L229 -40Q212 -77 194 -101T153 -141T105 -162T48 -169H1L21 -77H48Q90 -77 110 -55T141 10Q145 30 145 56Q145 62 145 68T144 81L126 538H240L237 194H239L382 538ZM294 746H404L469 602H377L337 691L259 602H167L294 746Z"  />
<glyph unicode="&#x178;" horiz-adv-x="444" d="M284 0H160L224 300L166 722H292L319 447H321L464 722H590L348 300L284 0ZM388 880L364 772H256L280 880H388ZM414 772L438 880H546L522 772H414Z"  />
<glyph unicode="&#x179;" horiz-adv-x="444" d="M204 614L228 722H556L530 604L195 108H423L400 0H44L69 118L407 614H204ZM421 760H338L448 904H583L421 760Z"  />
<glyph unicode="&#x17A;" horiz-adv-x="389" d="M140 446L160 538H475L455 446L169 92H378L359 0H30L49 92L331 446H140ZM347 602H264L374 746H509L347 602Z"  />
<glyph unicode="&#x17B;" horiz-adv-x="444" d="M204 614L228 722H556L530 604L195 108H423L400 0H44L69 118L407 614H204ZM476 880L452 772H344L368 880H476Z"  />
<glyph unicode="&#x17C;" horiz-adv-x="389" d="M140 446L160 538H475L455 446L169 92H378L359 0H30L49 92L331 446H140ZM409 722L385 614H277L301 722H409Z"  />
<glyph unicode="&#x17D;" horiz-adv-x="444" d="M204 614L228 722H556L530 604L195 108H423L400 0H44L69 118L407 614H204ZM441 760H331L266 904H358L398 815L476 904H568L441 760Z"  />
<glyph unicode="&#x17E;" horiz-adv-x="389" d="M140 446L160 538H475L455 446L169 92H378L359 0H30L49 92L331 446H140ZM380 602H270L205 746H297L337 657L415 746H507L380 602Z"  />
<glyph unicode="&#x192;" horiz-adv-x="444" d="M18 -73Q23 -76 30 -77T46 -78Q73 -78 92 -62T132 1T179 134T245 362H152L170 446H270Q292 526 320 581T380 669T448 717T521 732Q533 732 544 731T567 727L547 633Q525 646 498 646Q482 646 467 637T436 606T406 545T376 446H478L460 362H354Q319 235 287 136T219 -31T139 -134T36 -170Q16 -170 -1 -165L18 -73Z"  />
<glyph unicode="&#x218;" horiz-adv-x="444" d="M403 544Q404 550 404 555T405 565Q405 599 389 611T355 624Q325 624 305 606T277 553Q276 548 276 544T275 534Q275 509 288 487T321 442T363 396T406 347T439 290T452 221Q452 210 451 199T447 175Q438 130 416 96T363 38T293 2T211 -10Q174 -10 147 2T101 34T74 83T65 144Q65 155 66 166T69 190L190 207Q188 198 188 190Q188 182 188 174Q188 136 202 117T241 98Q273 98 296 115T327 164Q330 177 330 189Q330 217 317 240T284 286T242 330T199 378T166 434T153 503Q153 525 159 552Q178 639 238 685T390 732Q459 732 492 692T526 587Q526 579 526 572T524 557L403 544ZM183 -146H142L163 -50H256L236 -144L183 -228H137L183 -146Z"  />
<glyph unicode="&#x219;" horiz-adv-x="389" d="M342 389V393Q342 456 292 456Q270 456 255 445T234 413Q233 409 233 402Q233 376 257 354T310 307T364 249T388 170Q388 151 384 135Q368 63 316 27T195 -10Q124 -10 91 26T57 128V140L161 167Q161 162 161 159T160 151Q160 122 171 102T216 82Q238 82 254 94T276 129Q277 133 277 136T278 142Q278 161 267 177T238 210T201 243T163 279T135 321T123 373Q123 387 126 404Q133 436 150 462T191 508T245 537T307 548Q373 548 406 510T440 408V405L342 389ZM157 -146H116L137 -50H230L210 -144L157 -228H111L157 -146Z"  />
<glyph unicode="&#x21A;" horiz-adv-x="389" d="M264 614H144L168 722H287H410H532L508 614H388L256 0H132L264 614ZM160 -146H119L140 -50H233L213 -144L160 -228H114L160 -146Z"  />
<glyph unicode="&#x21B;" horiz-adv-x="278" d="M106 446L126 538H188L219 683H331L300 538H375L355 446H280L213 136Q212 131 212 128T211 120Q211 92 241 92H278L258 -4Q246 -7 234 -8T200 -10Q147 -10 120 10T92 74Q92 82 93 91T96 111L168 446H106ZM125 -146H84L105 -50H198L178 -144L125 -228H79L125 -146Z"  />
<glyph unicode="&#x237;" horiz-adv-x="222" d="M-14 -68H4Q27 -68 39 -56T55 -26L177 537H289L166 -31Q157 -71 141 -98T104 -141T57 -163T6 -170H-36L-14 -68Z"  />
<glyph unicode="&#x2C6;" horiz-adv-x="222" d="M217 746H327L392 602H300L260 691L182 602H90L217 746Z"  />
<glyph unicode="&#x2C7;" horiz-adv-x="222" d="M296 602H186L121 746H213L253 657L331 746H423L296 602Z"  />
<glyph unicode="&#x2C9;" horiz-adv-x="222" d="M115 701H409L395 637H101L115 701Z"  />
<glyph unicode="&#x2D8;" horiz-adv-x="222" d="M420 749Q411 720 396 695T359 650T308 619T242 607Q210 607 188 616T152 640T131 675T124 720Q124 727 124 734T126 749H184Q183 745 183 741Q183 738 183 735Q183 703 202 689T257 675Q297 675 322 692T362 749H420Z"  />
<glyph unicode="&#x2D9;" horiz-adv-x="222" d="M321 722L297 614H189L213 722H321Z"  />
<glyph unicode="&#x2DA;" horiz-adv-x="222" d="M211 704Q210 700 210 693Q210 675 221 664T252 652Q274 652 292 667T315 704Q316 708 316 715Q316 733 305 744T274 756Q252 756 234 741T211 704ZM161 704Q165 725 177 743T206 776T243 798T285 806Q322 806 344 783T367 725Q367 720 367 714Q367 709 365 704Q360 683 348 665T320 632T283 610T241 602Q204 602 182 625T159 683Q159 688 159 693Q159 699 161 704Z"  />
<glyph unicode="&#x2DB;" horiz-adv-x="222" d="M244 9Q224 1 199 -10T150 -36T108 -71T84 -116Q83 -120 83 -127Q83 -145 94 -154T123 -163Q146 -163 173 -150T222 -123L233 -159Q197 -182 158 -200T78 -219Q43 -219 21 -202T-2 -149Q-2 -144 -2 -138Q-2 -133 0 -127Q9 -88 37 -62T103 -19T179 7T247 21L244 9Z"  />
<glyph unicode="&#x2DC;" horiz-adv-x="222" d="M432 733Q423 712 412 691T385 653T349 626T304 615Q286 615 272 621T243 635Q229 643 216 648T187 654Q164 654 153 643T136 610H80Q89 631 100 652T127 690T163 717T208 728Q226 728 240 722T269 709Q283 702 296 696T325 689Q348 689 359 700T376 733H432Z"  />
<glyph unicode="&#x2DD;" horiz-adv-x="222" d="M163 602H84L184 746H319L163 602ZM333 602H250L360 746H495L333 602Z"  />
<glyph unicode="&#x394;" horiz-adv-x="689" d="M9 0L427 712H549L681 0H9ZM458 576L191 109H539L458 576Z"  />
<glyph unicode="&#x3A9;" horiz-adv-x="761" d="M425 0L465 192Q546 210 596 264T662 397Q665 410 666 422T667 447Q667 482 657 512T625 564T574 598T505 611Q459 611 418 594T344 548T288 479T256 396Q253 381 251 367T249 339Q249 283 278 246T364 192L324 0H47L68 102H248L256 141Q188 162 156 215T123 337Q123 354 124 371T130 405Q145 475 183 533T276 633T395 698T528 721Q588 721 637 704T722 656T777 579T797 478Q797 461 796 444T790 408Q781 363 761 320T710 242T639 180T550 141L542 102H724L703 0H425Z"  />
<glyph unicode="&#x3BC;" horiz-adv-x="444" d="M506 538L390 0H284L295 54Q276 40 261 30T230 11T199 -3T163 -10L129 -170H17L170 538H282L192 121Q191 117 191 109Q191 82 223 82Q241 82 260 92T303 116L394 538H506Z"  />
<glyph unicode="&#x3C0;" horiz-adv-x="597" d="M576 14Q551 3 530 -2T484 -8Q434 -8 416 12T398 68Q398 81 400 95T405 125L459 379H263L183 0H71L151 379H81L104 485H674L651 379H572L524 151Q522 143 520 134T518 117Q518 104 524 96T548 87Q569 87 594 98L576 14Z"  />
<glyph unicode="&#x2013;" horiz-adv-x="500" d="M50 233L66 305H566L550 233H50Z"  />
<glyph unicode="&#x2014;" horiz-adv-x="1000" d="M50 233L66 305H1066L1050 233H50Z"  />
<glyph unicode="&#x2018;" horiz-adv-x="222" d="M183 608L279 732H332L256 608H301L276 490H158L183 608Z"  />
<glyph unicode="&#x2019;" horiz-adv-x="222" d="M300 604L204 480H151L227 604H182L208 722H326L300 604Z"  />
<glyph unicode="&#x201A;" horiz-adv-x="222" d="M170 0L74 -124H21L97 0H52L77 118H195L170 0Z"  />
<glyph unicode="&#x201C;" horiz-adv-x="444" d="M386 608L482 732H535L459 608H504L479 490H361L386 608ZM201 608L297 732H350L274 608H319L294 490H176L201 608Z"  />
<glyph unicode="&#x201D;" horiz-adv-x="444" d="M319 604L223 480H170L246 604H201L227 722H345L319 604ZM504 604L408 480H355L431 604H386L412 722H530L504 604Z"  />
<glyph unicode="&#x201E;" horiz-adv-x="444" d="M189 0L93 -124H40L116 0H71L96 118H214L189 0ZM374 0L278 -124H225L301 0H256L281 118H399L374 0Z"  />
<glyph unicode="&#x2020;" horiz-adv-x="500" d="M531 450L373 492L381 323Q355 272 324 170T251 -80H213Q233 51 245 145T258 296Q258 304 258 310Q258 317 257 323L339 492L163 450L190 574L344 532L348 732H468L386 532L558 574L531 450Z"  />
<glyph unicode="&#x2021;" horiz-adv-x="500" d="M531 450L373 492L382 326L301 160L477 202L450 78L296 120L292 -80H172L254 120L82 78L109 202L267 160L258 326L339 492L163 450L190 574L344 532L348 732H468L386 532L558 574L531 450Z"  />
<glyph unicode="&#x2022;" horiz-adv-x="500" d="M147 361Q155 398 176 431T227 488T292 527T366 541Q432 541 472 501T512 399Q512 390 511 381T508 361Q500 323 479 291T427 233T361 194T287 180Q255 180 229 190T183 220T154 265T143 321Q143 342 147 361Z"  />
<glyph unicode="&#x2026;" horiz-adv-x="1000" d="M443 0L468 118H582L557 0H443ZM776 0L801 118H915L890 0H776ZM110 0L135 118H249L224 0H110Z"  />
<glyph unicode="&#x2030;" horiz-adv-x="1000" d="M217 572Q215 562 215 557Q215 533 230 518T272 502Q301 502 326 522T357 572Q359 582 359 588Q359 611 344 626T302 642Q273 642 249 622T217 572ZM798 150Q796 140 796 135Q796 111 811 96T853 80Q882 80 907 100T938 150Q940 160 940 165Q940 189 925 204T883 220Q854 220 829 200T798 150ZM444 150Q442 140 442 135Q442 111 457 96T499 80Q528 80 553 100T584 150Q586 160 586 165Q586 189 571 204T529 220Q500 220 475 200T444 150ZM665 732H735L163 -10H93L665 732ZM364 150Q371 181 388 208T430 256T485 288T546 300Q600 300 634 267T668 182Q668 174 667 166T664 150Q657 119 640 92T598 44T543 12T482 0Q428 0 394 33T360 118Q360 126 361 134T364 150ZM718 150Q725 181 742 208T784 256T839 288T900 300Q954 300 988 267T1022 182Q1022 174 1021 166T1018 150Q1011 119 994 92T952 44T897 12T836 0Q782 0 748 33T714 118Q714 126 715 134T718 150ZM137 572Q144 603 161 630T204 678T259 710T320 722Q347 722 369 713T407 688T432 651T441 604Q441 596 440 588T437 572Q430 541 413 514T371 466T316 434T255 422Q201 422 167 455T133 540Q133 548 134 556T137 572Z"  />
<glyph unicode="&#x2039;" horiz-adv-x="333" d="M298 115H202L121 270L269 423H368L218 269L298 115Z"  />
<glyph unicode="&#x203A;" horiz-adv-x="333" d="M231 269L147 423H246L328 270L179 115H83L231 269Z"  />
<glyph unicode="&#x2044;" horiz-adv-x="167" d="M-169 -10L401 732H492L-78 -10H-169Z"  />
<glyph unicode="&#x20AC;" horiz-adv-x="444" d="M142 315L159 395H99L140 479H177L192 547Q201 591 225 625T283 683T356 719T435 732Q477 732 515 718T579 675L523 561Q506 593 478 608T417 624Q383 624 354 605T315 544L301 479H482L441 395H283L266 315H404L362 231H247L237 183Q234 169 234 159Q234 127 254 112T304 97Q338 97 369 106T432 141L407 25Q372 6 336 -2T267 -10Q233 -10 204 -1T153 27T119 72T106 133Q106 150 111 175L123 231H63L105 315H142Z"  />
<glyph unicode="&#x2113;" horiz-adv-x="500" d="M459 51Q370 -14 281 -14Q216 -14 183 15T149 96Q149 113 153 130L164 183L98 132H96L65 202L186 287L237 528Q246 570 266 605T315 666T377 706T450 721Q505 721 536 692T568 611Q568 591 564 574Q547 497 485 424T309 267L284 150Q282 144 282 139T282 129Q282 102 297 91T333 80Q373 80 428 117H430L459 51ZM457 567Q460 580 460 593Q460 613 453 624T432 636Q414 636 396 614T370 552L332 375Q386 423 416 472T457 567Z"  />
<glyph unicode="&#x2122;" horiz-adv-x="990" d="M510 647H390L317 310H221L294 647H174L190 722H308H405H526L510 647ZM759 451L921 722H965H1056L967 310H875L940 612H938L763 310H694L649 612H647L582 310H490L579 722H668H715L759 451Z"  />
<glyph unicode="&#x2126;" horiz-adv-x="761" d="M425 0L465 192Q546 210 596 264T662 397Q665 410 666 422T667 447Q667 482 657 512T625 564T574 598T505 611Q459 611 418 594T344 548T288 479T256 396Q253 381 251 367T249 339Q249 283 278 246T364 192L324 0H47L68 102H248L256 141Q188 162 156 215T123 337Q123 354 124 371T130 405Q145 475 183 533T276 633T395 698T528 721Q588 721 637 704T722 656T777 579T797 479Q797 448 789 408Q780 363 760 320T710 242T639 180T550 141L542 102H724L703 0H425Z"  />
<glyph unicode="&#x212E;" horiz-adv-x="600" d="M157 259V78Q216 19 302 19Q365 19 411 47T495 139L530 118Q507 82 484 57T433 15T373 -9T302 -17Q243 -17 196 4T114 63T62 151T44 259Q44 317 62 367T114 455T195 513T302 535Q360 535 407 515T489 458T542 371T561 259H157ZM448 295V440Q385 500 301 500Q217 500 157 440V295H448Z"  />
<glyph unicode="&#x2202;" horiz-adv-x="560" d="M594 359Q580 295 556 229T491 109T394 21T259 -13Q173 -13 127 34T81 158Q81 186 87 216Q97 264 121 304T179 374T257 421T350 438Q392 438 422 425T479 385L486 411Q495 447 495 488Q495 515 490 541T471 587T437 619T384 631Q348 631 316 617T252 581L205 653Q254 685 298 703T398 721Q457 721 497 702T562 651T597 575T608 483Q608 424 594 359ZM457 289Q438 318 413 334T348 351Q317 351 292 340T248 309T217 264T198 210Q194 191 194 169Q194 130 214 103T281 75Q316 75 345 93T396 140T433 202T453 265L457 289Z"  />
<glyph unicode="&#x2206;" horiz-adv-x="689" d="M9 0L427 712H549L681 0H9ZM458 576L191 109H539L458 576Z"  />
<glyph unicode="&#x220F;" horiz-adv-x="743" d="M564 -214V677H179V-214H60V786H683V-214H564Z"  />
<glyph unicode="&#x2211;" horiz-adv-x="654" d="M25 -214V-119L326 292L38 692V786H617V677H196L468 293L178 -105H629V-214H25Z"  />
<glyph unicode="&#x2212;" horiz-adv-x="600" d="M91 204L112 302H618L597 204H91Z"  />
<glyph unicode="&#x2215;" horiz-adv-x="167" d="M-169 -10L401 732H492L-78 -10H-169Z"  />
<glyph unicode="&#x2219;" horiz-adv-x="222" d="M98 253Q104 281 127 300T180 320Q204 320 219 305T234 267Q234 263 234 260T232 253Q226 224 203 205T151 186Q126 186 111 200T96 238Q96 243 98 253Z"  />
<glyph unicode="&#x221A;" horiz-adv-x="545" d="M344 -214H234L83 99L32 75L-12 168L143 239L269 -30L435 786H557L344 -214Z"  />
<glyph unicode="&#x221E;" horiz-adv-x="823" d="M778 265Q778 226 766 192T732 133T678 93T605 78Q574 78 547 87T497 112T452 148T412 191Q391 169 371 149T328 113T279 88T220 79Q179 79 147 93T92 132T57 190T45 263Q45 302 56 335T90 393T144 432T216 446Q249 446 276 437T327 411T371 373T412 327Q431 350 451 372T495 410T546 437T606 447Q646 447 678 433T732 395T766 337T778 265ZM684 262Q684 297 663 322T604 347Q584 347 566 339T531 317T499 289T472 260Q485 245 500 231T532 205T567 186T607 179Q644 179 664 203T684 262ZM352 260Q340 273 324 288T291 316T254 337T216 346Q181 346 161 320T140 261Q140 225 161 203T219 180Q238 180 257 187T293 206T325 232T352 260Z"  />
<glyph unicode="&#x222B;" horiz-adv-x="614" d="M493 708Q493 685 478 669T439 653Q415 653 404 665T388 691T379 717T364 729Q353 729 350 720T346 701Q346 665 348 629T350 556L351 86Q351 43 351 -9T339 -106T295 -183T201 -214Q184 -214 164 -210T127 -196T99 -171T88 -135Q88 -112 103 -97T142 -82Q166 -82 176 -94T192 -120T201 -146T216 -158Q229 -158 231 -146T234 -125Q234 -97 232 -70T230 -13L229 516Q229 541 229 571T232 632T245 690T272 738Q315 785 382 785Q399 785 418 781T454 767T482 744T493 708Z"  />
<glyph unicode="&#x2248;" horiz-adv-x="600" d="M668 457Q657 422 641 390T601 334T546 296T474 281Q446 281 415 291T353 314T293 336T241 347Q213 347 194 327T165 281H90Q100 314 116 345T156 401T209 441T278 456Q308 456 338 446T399 425T460 403T518 393Q547 393 565 412T594 457H668ZM620 244Q610 209 594 178T555 122T501 83T432 68Q403 68 370 78T306 101T245 124T194 135Q167 135 147 114T118 68H43Q53 101 69 133T109 189T163 229T232 245Q263 245 292 235T351 213T411 191T472 181Q500 181 518 199T546 244H620Z"  />
<glyph unicode="&#x2260;" horiz-adv-x="600" d="M295 94L185 -61L97 -11L171 94H56L80 207H253L333 319H104L128 432H414L525 585L613 536L538 432H653L629 319H457L377 207H605L581 94H295Z"  />
<glyph unicode="&#x2264;" horiz-adv-x="600" d="M95 276L119 389L681 563L656 445L262 333L609 224L584 106L95 276ZM28 -38L52 75H577L553 -38H28Z"  />
<glyph unicode="&#x2265;" horiz-adv-x="600" d="M59 106L84 224L477 333L131 445L156 563L644 389L620 276L59 106ZM28 -38L52 75H577L553 -38H28Z"  />
<glyph unicode="&#x25CA;" horiz-adv-x="593" d="M348 -35H243L65 356L244 747H348L528 356L348 -35ZM296 635L180 356L296 76L413 356L296 635Z"  />
<glyph unicode="&#xE301;" horiz-adv-x="222" d="M253 760H170L280 904H415L253 760Z"  />
<glyph unicode="&#xE302;" horiz-adv-x="222" d="M217 904H327L392 760H300L260 849L182 760H90L217 904Z"  />
<glyph unicode="&#xE303;" horiz-adv-x="222" d="M296 760H186L121 904H213L253 815L331 904H423L296 760Z"  />
<glyph unicode="&#xE304;" horiz-adv-x="222" d="M432 891Q423 870 412 849T385 811T349 784T304 773Q286 773 272 779T243 793Q229 801 216 806T187 812Q164 812 153 801T136 768H80Q89 789 100 810T127 848T163 875T208 886Q226 886 240 880T269 867Q283 860 296 854T325 847Q348 847 359 858T376 891H432Z"  />
<glyph unicode="&#xE306;" horiz-adv-x="222" d="M115 859H409L395 795H101L115 859Z"  />
<glyph unicode="&#xE307;" horiz-adv-x="222" d="M420 907Q411 878 396 853T359 808T308 777T242 765Q210 765 188 774T152 798T131 833T124 878Q124 885 124 892T126 907H184Q183 903 183 899Q183 896 183 893Q183 861 202 847T257 833Q297 833 322 850T362 907H420Z"  />
<glyph unicode="&#xE308;" horiz-adv-x="222" d="M211 862Q210 858 210 851Q210 833 221 822T252 810Q274 810 292 825T315 862Q316 866 316 873Q316 891 305 902T274 914Q252 914 234 899T211 862ZM161 862Q165 883 177 901T206 934T243 956T285 964Q322 964 344 941T367 883Q367 878 367 872Q367 867 365 862Q360 841 348 823T320 790T283 768T241 760Q204 760 182 783T159 841Q159 846 159 851Q159 857 161 862Z"  />
<glyph unicode="&#xE309;" horiz-adv-x="222" d="M163 760H84L184 904H319L163 760ZM333 760H250L360 904H495L333 760Z"  />
<glyph unicode="&#xE30A;" horiz-adv-x="222" d="M321 880L297 772H189L213 880H321Z"  />
<glyph unicode="&#xE30B;" horiz-adv-x="222" d="M234 629H196L216 722H302L283 631L229 544H188L234 629Z"  />
<glyph unicode="&#xE30C;" horiz-adv-x="222" d="M73 -146H32L53 -50H146L126 -144L73 -228H27L73 -146Z"  />
<glyph unicode="&#xE30D;" horiz-adv-x="222" d="M258 673H295L277 589H192L210 672L257 746H299L258 673Z"  />
<glyph unicode="&#xFB01;" horiz-adv-x="444" d="M411 620L433 722H545L523 620H411ZM277 0L393 538H505L389 0H277ZM158 446H92L112 538H178L192 605Q206 671 245 701T345 732H401L381 640H349Q329 640 319 632T304 604L290 538H354L334 446H270L174 0H62L158 446Z"  />
<glyph unicode="&#xFB02;" horiz-adv-x="444" d="M277 0L433 722H545L389 0H277ZM158 446H92L112 538H178L192 605Q206 671 245 701T345 732H401L381 640H349Q329 640 319 632T304 604L290 538H354L334 446H270L174 0H62L158 446Z"  />

</font>
</defs>
</svg>
